# This file uses centimeters as units for non-parametric coordinates.

g default
v 0.500000 0.161548 0.208584
v 0.500000 0.238471 0.272851
v 0.500000 0.238471 0.208584
v 0.500000 0.161548 0.079354
v 0.500000 0.084625 0.079354
v -0.534057 0.238471 0.208584
v 0.500000 0.084625 -0.049877
v 0.500000 0.007702 -0.049877
v -0.534057 0.161548 0.208584
v -0.534057 0.161548 0.079354
v 0.500000 0.007702 -0.179108
v 0.500000 -0.069221 -0.179108
v 0.500000 -0.146144 -0.308338
v 0.501158 -0.146144 0.272851
v -0.534057 0.084625 0.079354
v -0.534057 0.084625 -0.049877
v 0.500000 -0.069221 -0.308338
v -0.534057 0.007702 -0.049877
v -0.534057 0.007702 -0.179108
v -0.534057 -0.069221 -0.179108
v -0.534057 -0.069221 -0.308338
v -0.534057 0.238471 0.272851
v -0.534052 -0.147875 -0.306855
v -0.532897 -0.148471 0.272851
vt 0.508828 0.478914
vt 0.537042 0.498631
vt 0.537532 0.478914
vt 0.381948 0.018450
vt 0.399144 0.018450
vt 0.508828 0.438726
vt 0.480121 0.438726
vt 0.419728 0.018450
vt 0.399144 0.295115
vt 0.480121 0.398539
vt 0.451417 0.398539
vt 0.454307 0.018450
vt 0.419728 0.295115
vt 0.474891 0.018450
vt 0.454307 0.295115
vt 0.451417 0.358351
vt 0.422710 0.358351
vt 0.779339 0.820786
vt 0.864103 0.820786
vt 0.509471 0.018450
vt 0.474891 0.295115
vt 0.530054 0.018450
vt 0.509471 0.295115
vt 0.422710 0.318164
vt 0.394006 0.318164
vt 0.564634 0.018450
vt 0.530054 0.295115
vt 0.585217 0.018450
vt 0.564634 0.295115
vt 0.360469 0.338073
vt 0.619797 0.018450
vt 0.585217 0.295115
vt 0.394006 0.498901
vt 0.640614 0.018450
vt 0.619797 0.295115
vt 0.360469 0.378228
vt 0.331787 0.378228
vt 0.381948 0.295115
vt 0.331787 0.418381
vt 0.303107 0.418381
vt 0.640614 0.296096
vt 0.303107 0.458534
vt 0.274425 0.458534
vt 0.274425 0.498688
vt 0.245097 0.498227
vt 0.389150 0.318104
vt 0.389150 0.338073
vt 0.779339 0.971773
vt 0.278721 0.295115
vt 0.244876 0.318104
vt 0.864103 0.971773
vt 0.278721 0.018450
vn 0.999995 0.002621 -0.001560
vn 1.000000 0.000000 0.000000
vn 0.999999 0.001063 -0.000633
vn 0.000000 1.000000 0.000000
vn 0.000000 1.000000 0.000000
vn 0.000000 1.000000 0.000000
vn 0.000000 1.000000 0.000000
vn 1.000000 0.000000 0.000000
vn 0.999995 0.002621 -0.001560
vn 0.999995 0.002801 -0.001667
vn 0.000000 0.000000 -1.000000
vn 0.000000 0.000000 -1.000000
vn 0.000000 0.000000 -1.000000
vn 0.000000 0.000000 -1.000000
vn 1.000000 0.000000 0.000000
vn 0.999995 0.002801 -0.001667
vn 0.999994 0.002930 -0.001744
vn 0.000000 1.000000 0.000000
vn 0.000000 1.000000 0.000000
vn 0.000000 1.000000 0.000000
vn 0.000000 1.000000 0.000000
vn 0.000000 0.000000 -1.000000
vn 0.000000 0.000000 -1.000000
vn 0.000000 0.000000 -1.000000
vn 0.000000 0.000000 -1.000000
vn 1.000000 0.000000 0.000000
vn 0.999994 0.002930 -0.001744
vn 0.999994 0.002998 -0.001784
vn 0.001672 -0.999998 -0.001033
vn 0.001936 -0.999998 -0.000871
vn 0.003347 -0.999994 -0.000007
vn 0.001672 -0.999998 -0.001033
vn 0.000000 1.000000 0.000000
vn 0.000000 1.000000 0.000000
vn 0.000000 1.000000 0.000000
vn 0.000000 1.000000 0.000000
vn 0.000000 0.000000 -1.000000
vn 0.000000 0.000000 -1.000000
vn 0.000000 0.000000 -1.000000
vn 0.000000 0.000000 -1.000000
vn 1.000000 0.000000 0.000000
vn 0.999994 0.002998 -0.001784
vn 0.999996 0.002344 -0.001395
vn 0.000000 1.000000 0.000000
vn 0.000000 1.000000 0.000000
vn 0.000000 1.000000 0.000000
vn 0.000000 1.000000 0.000000
vn 0.000000 0.000000 -1.000000
vn 0.000000 0.000000 -1.000000
vn 0.000000 0.000000 -1.000000
vn 0.000000 0.000000 -1.000000
vn -0.999993 -0.003286 0.001990
vn -0.999994 -0.002924 0.001740
vn -0.999994 -0.002953 0.001781
vn 0.000000 1.000000 0.000000
vn 0.000000 1.000000 0.000000
vn 0.000000 1.000000 0.000000
vn 0.000000 1.000000 0.000000
vn 0.999992 0.003347 -0.001993
vn 0.999995 0.002801 -0.001667
vn 0.999995 0.002621 -0.001560
vn -0.001338 -0.017985 -0.999837
vn 0.000000 0.000000 -1.000000
vn -0.000069 -0.000930 -1.000000
vn -0.001403 -0.018857 -0.999821
vn -1.000000 0.000000 0.000000
vn -0.999995 -0.002795 0.001664
vn -0.999995 -0.002616 0.001557
vn -1.000000 0.000000 0.000000
vn -0.999994 -0.002924 0.001740
vn -0.999995 -0.002795 0.001664
vn -1.000000 0.000000 0.000000
vn -0.999994 -0.002953 0.001781
vn -0.999994 -0.002924 0.001740
vn -1.000000 -0.000056 0.000000
vn -0.999996 -0.002336 0.001404
vn -0.999994 -0.002953 0.001781
vn 0.000000 0.000000 1.000000
vn 0.000000 0.000000 1.000000
vn 0.000000 0.000000 1.000000
vn 0.000000 0.000000 1.000000
vn -0.999993 -0.003286 0.001990
vn -0.999994 -0.002953 0.001781
vn -0.999996 -0.002336 0.001404
vn -0.999993 -0.003286 0.001990
vn -0.999995 -0.002795 0.001664
vn -0.999994 -0.002924 0.001740
vn -0.999993 -0.003286 0.001990
vn -0.999995 -0.002616 0.001557
vn -0.999995 -0.002795 0.001664
vn -0.999995 -0.002616 0.001557
vn -1.000000 0.000000 0.000000
vn -1.000000 0.000000 0.000000
vn -0.999995 -0.002616 0.001557
vn -0.999993 -0.003286 0.001990
vn -1.000000 0.000000 0.000000
vn 0.999992 0.003347 -0.001993
vn 0.999995 0.002621 -0.001560
vn 0.999999 0.001063 -0.000633
vn 0.999992 0.003347 -0.001993
vn 0.999994 0.002998 -0.001784
vn 0.999994 0.002930 -0.001744
vn 0.999992 0.003347 -0.001993
vn 0.999994 0.002930 -0.001744
vn 0.999995 0.002801 -0.001667
vn 0.999992 0.003347 -0.001993
vn 0.999996 0.002344 -0.001395
vn 0.999994 0.002998 -0.001784
s off
g StairsBottom:Stair5
f 1/1/1 3/3/2 2/2/3
f 2/4/4 3/5/5 6/9/6 22/38/7
f 4/6/8 1/1/9 5/7/10
f 6/9/11 3/5/12 1/8/13 9/13/14
f 7/10/15 5/7/16 8/11/17
f 9/13/18 1/8/19 4/12/20 10/15/21
f 10/15/22 4/12/23 5/14/24 15/21/25
f 11/16/26 8/11/27 12/17/28
f 23/48/29 13/18/30 14/19/31 24/51/32
f 15/21/33 5/14/34 7/20/35 16/23/36
f 16/23/37 7/20/38 8/22/39 18/27/40
f 17/24/41 12/17/42 13/25/43
f 18/27/44 8/22/45 11/26/46 19/29/47
f 19/29/48 11/26/49 12/28/50 20/32/51
f 24/50/52 18/40/53 20/43/54
f 20/32/55 12/28/56 17/31/57 21/35/58
f 14/33/59 5/7/60 1/1/61
f 21/35/62 17/31/63 13/34/64 23/41/65
f 10/36/66 15/37/67 9/30/68
f 16/39/69 18/40/70 15/37/71
f 19/42/72 20/43/73 18/40/74
f 21/44/75 23/45/76 20/43/77
f 14/52/78 2/4/79 22/38/80 24/49/81
f 24/50/82 20/43/83 23/45/84
f 24/50/85 15/37/86 18/40/87
f 24/50/88 9/30/89 15/37/90
f 9/30/91 22/46/92 6/47/93
f 9/30/94 24/50/95 22/46/96
f 14/33/97 1/1/98 2/2/99
f 14/33/100 12/17/101 8/11/102
f 14/33/103 8/11/104 5/7/105
f 14/33/106 13/25/107 12/17/108
