# This file uses meters as units for non-parametric coordinates.

mtllib Libra_hero_Cubes.mtl
g default
v -156.955170 -32.192150 156.955170
v 156.955170 -32.192150 156.955170
v -156.955170 281.718140 156.955170
v 156.955170 281.718170 156.955170
v -156.955170 281.718170 -156.955170
v 156.955170 281.718170 -156.955170
v -156.955170 -32.192150 -156.955170
v 156.955170 -32.192150 -156.955170
v -156.955170 250.327148 156.955170
v -156.955170 250.327148 -156.955170
v 156.955170 250.327148 -156.955170
v 156.955170 250.327148 156.955170
v -156.955170 -3.940220 156.955170
v -156.955170 -3.940220 -156.955170
v 156.955170 -3.940220 -156.955170
v 156.955170 -3.940220 156.955170
v -156.955170 250.327148 -125.564133
v -156.955170 -3.940220 -125.564133
v 156.955170 -3.940208 -125.564133
v 156.955170 250.327148 -125.564133
v -156.955170 250.327148 128.703247
v -156.955170 -3.940208 128.703247
v 156.955170 -3.940220 128.703247
v 156.955170 250.327148 128.703247
v -125.564133 -3.940220 156.955170
v -125.564133 250.327148 156.955170
v -125.564133 281.718201 128.703247
v -125.564133 281.718201 -125.564133
v -125.564133 250.327148 -156.955170
v -125.564133 -3.940208 -156.955170
v -125.564133 -32.192150 -125.564133
v -125.564133 -32.192150 128.703232
v 128.703247 250.327148 156.955170
v 128.703247 -3.940208 156.955170
v 128.703247 -32.192150 128.703247
v 128.703247 -32.192150 -125.564133
v 128.703247 -3.940220 -156.955170
v 128.703247 250.327148 -156.955170
v 128.703247 281.718201 -125.564133
v 128.703247 281.718201 128.703232
vt -0.761131 0.532800
vt -0.524941 0.532800
vt 0.008960 0.584053
vt 0.500255 0.556152
vt 0.002273 0.556152
vt 0.008960 0.584053
vt -0.991040 0.584053
vt -0.288751 0.532800
vt -0.746385 0.584053
vt -0.991040 0.584053
vt 0.749246 0.556152
vt -0.997727 0.532800
vt -0.991040 0.584053
vt 0.008960 0.584053
vt 0.008960 0.584053
vt 0.251265 0.556152
vt 0.250237 0.994533
vt 0.004995 0.994533
vt 0.004995 0.994533
vt 0.250222 0.994570
vt 0.004979 0.994531
vt 0.250237 0.994533
vt 0.250237 0.994533
vt 0.004995 0.994533
vt -0.761134 0.555537
vt -0.997727 0.555537
vt -0.288754 0.555537
vt -0.524944 0.555537
vt 0.029519 0.994533
vt -0.973705 0.555537
vt 0.225713 0.795887
vt 0.724350 0.532185
vt 0.228165 0.994533
vt -0.782391 0.555537
vt 0.027066 0.795887
vt 0.522667 0.532185
vt -0.737515 0.555537
vt 0.029519 0.994533
vt 0.230629 0.560780
vt 0.028293 0.994533
vt 0.998564 0.556152
vt 0.225697 0.994566
vt -0.025091 0.555537
vt -0.001436 0.532800
vt 0.028293 0.795887
vt -0.968774 0.560780
vt 0.477849 0.532185
vt -0.546201 0.555537
vt 0.226939 0.994533
vt -0.769372 0.560780
vt 0.027082 0.795889
vt 0.771658 0.532185
vt 0.226939 0.994533
vt 0.031226 0.560780
vt 0.228165 0.994533
vt 0.027051 0.994535
vt -0.267497 0.555537
vt 0.228165 0.795887
vt 0.749249 0.532185
vt 0.250237 0.795887
vt 0.005011 0.795885
vt 0.029519 0.795887
vt 0.276166 0.532185
vt 0.225729 0.795920
vt 0.973341 0.532185
vt 0.251267 0.532185
vt 0.250237 0.795887
vt 0.004995 0.795887
vt 0.027066 0.994533
vt -0.503687 0.555537
vt 0.228165 0.795887
vt 0.228858 0.532185
vt 0.500258 0.532185
vt 0.250237 0.795887
vt 0.004995 0.795887
vt 0.029519 0.795887
vt 0.027175 0.532185
vt 0.225713 0.994533
vt -0.312373 0.555537
vt 0.250253 0.795924
vt 0.004995 0.795887
vt 0.998564 0.532185
vt 0.230629 0.560780
vt 0.226939 0.795887
vt -0.769372 0.560780
vt 0.226939 0.795887
vt 0.028293 0.795887
vt 0.230629 0.560780
vt -0.769372 0.560780
vt 0.028293 0.994533
vt 0.002273 0.532185
vt -0.001436 0.555537
vt 0.230629 0.560780
vt 0.253615 0.584053
vt 0.031226 0.560780
vt 0.253615 0.584053
vt 0.031226 0.560780
vt 0.253615 0.584053
vt 0.253615 0.584053
vt 0.031226 0.560780
vt -0.769372 0.560780
vt -0.991040 0.584053
vt -0.746385 0.584053
vt -0.968774 0.560780
vt -0.968774 0.560780
vt -0.746385 0.584053
vt -0.968774 0.560780
vt -0.746385 0.584053
vn 0.000000 0.000000 1.000000
vn 0.000000 0.000000 1.000000
vn 0.000000 0.000000 1.000000
vn 0.000000 0.000000 -1.000000
vn 0.000000 0.000000 -1.000000
vn 0.000000 0.000000 -1.000000
vn 1.000000 0.000000 0.000000
vn 1.000000 0.000000 0.000000
vn 1.000000 0.000000 0.000000
vn -1.000000 0.000000 0.000000
vn -1.000000 0.000000 0.000000
vn -1.000000 0.000000 0.000000
vn -1.000000 -0.000000 0.000000
vn -1.000000 -0.000000 0.000000
vn -1.000000 0.000000 0.000000
vn 0.000000 0.000000 -1.000000
vn 0.000000 0.000000 -1.000000
vn 0.000000 0.000000 -1.000000
vn 1.000000 0.000000 0.000000
vn 1.000000 -0.000000 0.000000
vn 1.000000 -0.000000 0.000000
vn 0.000000 0.000000 1.000000
vn 0.000000 0.000000 1.000000
vn 0.000000 0.000000 1.000000
vn -1.000000 0.000000 0.000000
vn -1.000000 -0.000000 0.000000
vn -1.000000 -0.000000 0.000000
vn -1.000000 0.000000 0.000000
vn -1.000000 0.000000 0.000000
vn -1.000000 0.000000 0.000000
vn 1.000000 0.000000 0.000000
vn 1.000000 0.000000 0.000000
vn 1.000000 0.000000 0.000000
vn 1.000000 -0.000000 0.000000
vn 1.000000 0.000000 0.000000
vn 1.000000 -0.000000 0.000000
vn 0.000000 -1.000000 0.000000
vn 0.000000 -1.000000 0.000000
vn 0.000000 -1.000000 0.000000
vn 0.000000 -1.000000 0.000000
vn -0.000001 1.000000 0.000001
vn -0.000000 1.000000 0.000000
vn -0.000000 1.000000 -0.000000
vn -0.000001 1.000000 -0.000000
vn 0.000000 0.000000 1.000000
vn 0.000000 0.000000 1.000000
vn -0.000000 0.000000 1.000000
vn 0.000000 0.000000 1.000000
vn 0.000000 0.000000 1.000000
vn 0.000000 0.000000 1.000000
vn 0.000000 1.000000 -0.000000
vn 0.000000 1.000000 0.000000
vn 0.000001 1.000000 0.000001
vn 0.000000 1.000000 -0.000000
vn 0.000000 0.000000 -1.000000
vn 0.000000 0.000000 -1.000000
vn 0.000000 0.000000 -1.000000
vn 0.000000 0.000000 -1.000000
vn 0.000000 0.000000 -1.000000
vn -0.000000 0.000000 -1.000000
vn 0.000000 -1.000000 0.000000
vn 0.000000 -1.000000 0.000000
vn 0.000000 -1.000000 0.000000
vn 0.000000 -1.000000 0.000000
s 1
g pCube2
usemtl lambert3SG
f 1/1/1 25/37/2 13/25/3
s 2
f 14/92/4 30/43/5 7/44/6
s 3
f 2/2/7 23/70/8 16/28/9
s 4
f 22/34/10 1/1/11 13/25/12
f 3/16/13 21/72/14 9/66/15
s 2
f 5/41/16 29/65/17 10/82/18
s 3
f 12/73/19 24/36/20 4/4/21
s 1
f 9/66/22 26/63/23 3/16/24
s 4
f 21/33/14 22/71/10 13/67/12 9/17/15
s 2
f 10/20/18 29/42/17 30/64/5 14/80/4
s 3
f 16/75/9 23/35/8 24/69/20 12/24/19
s 1
f 13/68/3 25/62/2 26/38/23 9/18/22
s 4
f 10/91/25 17/77/26 5/5/27
f 14/81/28 18/76/29 17/29/26 10/19/25
f 7/12/30 18/30/29 14/26/28
s 3
f 19/79/31 8/8/32 15/27/33
f 20/78/34 19/31/31 15/60/33 11/22/35
f 6/11/36 20/32/34 11/59/35
s 4
f 5/5/27 17/77/26 21/72/14 3/16/13
f 17/29/26 18/76/29 22/71/10 21/33/14
f 18/30/29 7/12/30 1/1/11 22/34/10
s 8
f 7/7/37 31/104/38 32/101/39 1/9/40
s 3
f 23/70/8 2/2/7 8/8/32 19/79/31
f 24/69/20 23/35/8 19/31/31 20/78/34
f 4/4/21 24/36/20 20/32/34 6/11/36
s 9
f 3/3/41 27/97/42 28/88/43 5/96/44
s 1
f 34/48/45 2/2/46 16/28/47
f 33/55/48 34/58/45 16/74/47 12/23/49
f 4/4/50 33/47/48 12/73/49
s 9
f 39/100/51 40/93/52 4/94/53 6/6/54
s 2
f 38/52/55 6/11/56 11/59/57
f 37/51/58 38/56/55 11/21/57 15/61/59
f 8/8/60 37/57/58 15/27/59
s 8
f 35/107/61 36/50/62 8/106/63 2/10/64
s 1
f 26/38/23 25/62/2 34/58/45 33/55/48
f 25/37/2 1/1/1 2/2/46 34/48/45
s 8
f 1/102/40 32/46/39 35/85/61 2/108/64
f 32/90/39 31/45/38 36/86/62 35/49/61
f 31/89/38 7/103/37 8/13/63 36/105/62
s 2
f 7/44/6 30/43/5 37/57/58 8/8/60
f 30/64/5 29/42/17 38/56/55 37/51/58
f 29/65/17 5/41/16 6/11/56 38/52/55
s 9
f 5/14/44 28/95/43 39/83/51 6/99/54
f 28/40/43 27/87/42 40/84/52 39/53/51
f 27/39/42 3/98/41 4/15/53 40/54/52
s 1
f 3/16/24 26/63/23 33/47/48 4/4/50
