# This file uses centimeters as units for non-parametric coordinates.

mtllib Capricorn_std_VinesPlane.mtl
g default
v -3.314732 -0.753057 -0.010084
v 2.713359 -0.753057 -0.010084
v -3.314732 7.521376 -0.010084
v 2.713359 7.521376 -0.010084
vt 0.000000 0.000000
vt 1.000000 0.000000
vt 0.000000 1.000000
vt 1.000000 1.000000
vn 0.000000 0.000000 1.000000
vn 0.000000 0.000000 1.000000
vn 0.000000 0.000000 1.000000
vn 0.000000 0.000000 1.000000
s off
g Vines_Plane
usemtl initialShadingGroup
f 4/4/1 3/3/2 1/1/3 2/2/4
