# This file uses centimeters as units for non-parametric coordinates.

g default
v 0.951057 -0.613818 -0.309017
v 0.809018 -0.613818 -0.587786
v 0.587786 -0.613818 -0.809017
v 0.309017 -0.613818 -0.951057
v -0.309017 -0.613818 -0.951057
v -0.587785 -0.613818 -0.809017
v -0.809017 -0.613818 -0.587785
v -0.951057 -0.613818 -0.309017
v -1.000000 -0.613818 0.000000
v -0.951057 -0.613818 0.309017
v -0.809017 -0.613818 0.587785
v -0.587785 -0.613818 0.809017
v -0.309017 -0.613818 0.951057
v -0.000000 -0.613818 1.000000
v 0.309017 -0.613818 0.951057
v 0.587785 -0.613818 0.809017
v 0.809017 -0.613818 0.587785
v 0.951057 -0.613818 0.309017
v 1.000000 -0.613818 0.000000
v 0.951057 0.613818 -0.309017
v 0.809018 0.613818 -0.587786
v 0.587786 0.613818 -0.809017
v 0.309017 0.613818 -0.951057
v -0.309017 0.613818 -0.951057
v -0.587785 0.613818 -0.809017
v -0.809017 0.613818 -0.587785
v -0.951057 0.613818 -0.309017
v -1.000000 0.613818 0.000000
v -0.951057 0.613818 0.309017
v -0.809017 0.613818 0.587785
v -0.587785 0.613818 0.809017
v -0.309017 0.613818 0.951057
v -0.000000 0.613818 1.000000
v 0.309017 0.613818 0.951057
v 0.587785 0.613818 0.809017
v 0.809017 0.613818 0.587785
v 0.951057 0.613818 0.309017
v 1.000000 0.613818 0.000000
vt 0.375000 0.312500
vt 0.387500 0.312500
vt 0.400000 0.312500
vt 0.412500 0.312500
vt 0.437500 0.312500
vt 0.450000 0.312500
vt 0.462500 0.312500
vt 0.475000 0.312500
vt 0.487500 0.312500
vt 0.500000 0.312500
vt 0.512500 0.312500
vt 0.525000 0.312500
vt 0.537500 0.312500
vt 0.550000 0.312500
vt 0.562500 0.312500
vt 0.575000 0.312500
vt 0.587500 0.312500
vt 0.600000 0.312500
vt 0.612500 0.312500
vt 0.625000 0.312500
vt 0.375000 0.688440
vt 0.387500 0.688440
vt 0.400000 0.688440
vt 0.412500 0.688440
vt 0.437500 0.688440
vt 0.450000 0.688440
vt 0.462500 0.688440
vt 0.475000 0.688440
vt 0.487500 0.688440
vt 0.500000 0.688440
vt 0.512500 0.688440
vt 0.525000 0.688440
vt 0.537500 0.688440
vt 0.550000 0.688440
vt 0.562500 0.688440
vt 0.575000 0.688440
vt 0.587500 0.688440
vt 0.600000 0.688440
vt 0.612500 0.688440
vt 0.625000 0.688440
vn -0.951057 0.000000 0.309016
vn -0.951057 0.000000 0.309016
vn -0.809017 0.000000 0.587785
vn -0.809017 0.000000 0.587785
vn -0.587785 0.000000 0.809017
vn -0.587785 0.000000 0.809017
vn -0.453990 0.000000 0.891007
vn -0.453990 0.000000 0.891007
vn 0.453991 0.000000 0.891006
vn 0.453991 0.000000 0.891006
vn 0.587786 0.000000 0.809017
vn 0.587785 0.000000 0.809017
vn 0.809017 0.000000 0.587785
vn 0.809017 0.000000 0.587785
vn 0.951057 0.000000 0.309017
vn 0.951057 0.000000 0.309017
vn 1.000000 0.000000 -0.000000
vn 1.000000 0.000000 0.000000
vn 0.951057 0.000000 -0.309017
vn 0.951057 0.000000 -0.309017
vn 0.809017 0.000000 -0.587785
vn 0.809017 0.000000 -0.587785
vn 0.587785 0.000000 -0.809017
vn 0.587785 0.000000 -0.809017
vn 0.309017 0.000000 -0.951057
vn 0.309017 0.000000 -0.951057
vn -0.000000 0.000000 -1.000000
vn -0.000000 0.000000 -1.000000
vn -0.309017 0.000000 -0.951057
vn -0.309017 0.000000 -0.951057
vn -0.587785 0.000000 -0.809017
vn -0.587785 0.000000 -0.809017
vn -0.809017 0.000000 -0.587785
vn -0.809017 0.000000 -0.587785
vn -0.951057 0.000000 -0.309017
vn -0.951057 0.000000 -0.309017
vn -1.000000 0.000000 -0.000001
vn -1.000000 0.000000 -0.000001
s 1
g HubBorder1
f 1/1/1 20/21/2 2/2/3
f 2/2/3 20/21/2 21/22/4
f 2/2/3 21/22/4 3/3/5
f 3/3/5 21/22/4 22/23/6
f 3/3/5 22/23/6 4/4/7
f 4/4/7 22/23/6 23/24/8
f 5/5/9 24/25/10 6/6/11
f 6/6/11 24/25/10 25/26/12
f 6/6/11 25/26/12 7/7/13
f 7/7/13 25/26/12 26/27/14
f 7/7/13 26/27/14 8/8/15
f 8/8/15 26/27/14 27/28/16
f 8/8/15 27/28/16 9/9/17
f 9/9/17 27/28/16 28/29/18
f 9/9/17 28/29/18 10/10/19
f 10/10/19 28/29/18 29/30/20
f 10/10/19 29/30/20 11/11/21
f 11/11/21 29/30/20 30/31/22
f 11/11/21 30/31/22 12/12/23
f 12/12/23 30/31/22 31/32/24
f 12/12/23 31/32/24 13/13/25
f 13/13/25 31/32/24 32/33/26
f 13/13/25 32/33/26 14/14/27
f 14/14/27 32/33/26 33/34/28
f 14/14/27 33/34/28 15/15/29
f 15/15/29 33/34/28 34/35/30
f 15/15/29 34/35/30 16/16/31
f 16/16/31 34/35/30 35/36/32
f 16/16/31 35/36/32 17/17/33
f 17/17/33 35/36/32 36/37/34
f 17/17/33 36/37/34 18/18/35
f 18/18/35 36/37/34 37/38/36
f 18/18/35 37/38/36 19/19/37
f 19/19/37 37/38/36 38/39/38
f 19/19/37 38/39/38 1/20/1
f 1/20/1 38/39/38 20/40/2
