# This file uses centimeters as units for non-parametric coordinates.

g default
v 0.503673 -0.499887 0.826273
v 0.500326 0.500113 0.826273
v -0.533727 0.498383 0.827757
v -0.530375 -0.503348 0.829240
v 0.503157 -0.499888 0.567540
v 0.499939 0.499979 0.531266
v -0.530761 -0.503483 0.570507
v -0.533984 0.498116 0.532749
v 0.498545 -0.498194 -1.155702
v -0.534516 -0.501806 -1.153478
vt 0.681257 0.433844
vt 0.951884 0.434750
vt 0.951416 0.714593
vt 0.680320 0.713686
vt 0.681257 0.433844
vt 0.951884 0.434750
vt 0.680320 0.713686
vt 0.951416 0.714593
vt 0.681257 0.433844
vt 0.951884 0.434750
vt 0.680320 0.713686
vt 0.951416 0.714593
vt 0.816570 0.434297
vt 0.815868 0.714139
vn 0.002869 0.000010 0.999996
vn 0.002165 0.000733 0.999997
vn 0.002135 0.000764 0.999997
vn 0.001432 0.001486 0.999998
vn 0.999992 0.003347 -0.001993
vn 0.999992 0.003148 -0.002560
vn 0.999994 0.003197 -0.001410
vn 0.999992 0.003132 -0.002406
vn 0.003349 -0.999994 0.000514
vn 0.003466 -0.999994 -0.000802
vn 0.003456 -0.999994 0.000080
vn 0.003474 -0.999994 -0.000863
vn -0.001674 0.999999 -0.000453
vn -0.002241 0.893106 -0.449841
vn -0.001781 0.999998 -0.000823
vn -0.002752 0.892976 -0.450096
vn -0.999993 -0.003145 0.001919
vn -0.999993 -0.003160 0.002063
vn -0.999994 -0.003207 0.000964
vn -0.999993 -0.003344 0.001495
vn 0.999992 0.003122 -0.002674
vn 0.003495 -0.999993 -0.000980
vn 0.003487 -0.999994 -0.000984
vn -0.003542 0.860287 -0.509798
vn -0.004106 0.860134 -0.510052
vn -0.999993 -0.003136 0.002175
s 1
g Staircollide
f 1/5/1 2/6/2 4/7/3
f 4/7/3 2/6/2 3/8/4
s 2
f 1/1/5 5/9/6 2/2/7
f 2/2/7 5/9/6 6/10/8
s 3
f 4/4/9 7/11/10 1/1/11
f 1/1/11 7/11/10 5/9/12
s 4
f 2/2/13 6/10/14 3/3/15
f 3/3/15 6/10/14 8/12/16
s 5
f 8/12/17 7/11/18 3/3/19
f 3/3/19 7/11/18 4/4/20
s 2
f 5/9/6 9/13/21 6/10/8
s 3
f 10/14/22 9/13/23 7/11/10
f 7/11/10 9/13/23 5/9/12
s 4
f 6/10/14 9/13/24 8/12/16
f 8/12/16 9/13/24 10/14/25
s 5
f 8/12/17 10/14/26 7/11/18
