# This file uses centimeters as units for non-parametric coordinates.

g default
v 0.499647 0.290875 0.177868
v 0.499094 -0.104625 -0.490548
v 0.091787 -0.105705 -0.490548
v -0.316966 0.288710 0.177868
v 0.502114 -0.499505 0.177868
v 0.500325 -0.498848 -0.490548
v -0.534096 0.287673 0.177868
v -0.531617 -0.503101 0.177868
v -0.296638 -0.502280 0.177868
v -0.534307 -0.108693 -0.490548
v 0.101926 -0.500232 -0.490548
v -0.533072 -0.502451 -0.490548
vt 0.923537 0.434655
vt 0.869923 0.434475
vt 0.869692 0.544717
vt 0.923074 0.655680
vt 0.711855 0.433946
vt 0.764341 0.434122
vt 0.468044 0.169236
vt 0.446154 0.169077
vt 0.446404 0.047915
vt 0.470094 0.048041
vt 0.550622 0.048466
vt 0.550373 0.169568
vt 0.869157 0.714317
vt 0.922888 0.714497
vt 0.711311 0.650137
vt 0.764069 0.541953
vt 0.763745 0.713965
vt 0.711191 0.713789
vt 0.550441 0.701433
vt 0.510276 0.701645
vt 0.446257 0.701985
vt 0.446133 0.641654
vt 0.509254 0.641196
vt 0.550317 0.641031
vn -0.002282 0.860628 -0.509229
vn -0.002931 0.860453 -0.509522
vn -0.002282 0.860628 -0.509229
vn -0.003120 0.860401 -0.509608
vn 0.999992 0.003122 -0.002674
vn 0.999992 0.003122 -0.002674
vn 0.999992 0.003122 -0.002674
vn 0.999992 0.003122 -0.002674
vn 0.000000 0.000000 1.000000
vn -0.000000 0.000000 1.000000
vn 0.000000 0.000000 1.000000
vn -0.000000 0.000000 1.000000
vn -0.000000 0.000000 1.000000
vn -0.000000 0.000000 1.000000
vn -0.004106 0.860134 -0.510052
vn -0.004106 0.860134 -0.510052
vn 0.003484 -0.999994 -0.000986
vn 0.003481 -0.999994 -0.000988
vn 0.003473 -0.999994 -0.000993
vn 0.003473 -0.999994 -0.000993
vn -0.999993 -0.003136 0.002175
vn -0.999993 -0.003135 0.002175
vn -0.999993 -0.003135 0.002175
vn -0.999993 -0.003135 0.002175
vn 0.003494 -0.999994 -0.000980
vn 0.003494 -0.999993 -0.000980
vn -0.000000 0.000000 -1.000000
vn 0.000000 0.000000 -1.000000
vn 0.000000 0.000000 -1.000000
vn 0.000000 0.000000 -1.000000
vn 0.000000 0.000000 -1.000000
vn 0.000000 0.000000 -1.000000
s 1
g Staircollide6
f 2/2/1 3/3/2 1/1/3
f 1/1/3 3/3/2 4/4/4
s 2
f 6/6/5 2/2/6 5/5/7
f 5/5/7 2/2/6 1/1/8
s 3
f 8/9/9 9/10/10 7/8/11
f 7/8/11 9/10/10 4/7/12
f 4/7/12 9/10/10 1/12/13
f 9/10/10 5/11/14 1/12/13
s 1
f 3/3/2 10/13/15 4/4/4
f 4/4/4 10/13/15 7/14/16
s 4
f 9/15/17 11/16/18 5/5/19
f 5/5/19 11/16/18 6/6/20
s 5
f 7/14/21 10/13/22 8/18/23
f 8/18/23 10/13/22 12/17/24
s 4
f 11/16/18 9/15/17 12/17/25
f 12/17/25 9/15/17 8/18/26
s 6
f 12/21/27 10/22/28 11/20/29
f 10/22/28 3/23/30 11/20/29
f 3/23/30 2/24/31 11/20/29
f 6/19/32 11/20/29 2/24/31
