# This file uses centimeters as units for non-parametric coordinates.

g default
v 0.500325 -0.146000 0.272851
v 0.498545 -0.145346 -0.392303
v 0.499094 0.248223 0.272851
v 0.091787 0.247143 0.272851
v 0.101926 -0.147384 0.272851
v -0.534307 0.244155 0.272851
v -0.534516 -0.148958 -0.390079
v -0.533072 -0.149603 0.272851
vt 0.764341 0.434122
vt 0.816570 0.434297
vt 0.869923 0.434475
vt 0.869692 0.544717
vt 0.764069 0.541953
vt 0.869157 0.714317
vt 0.815868 0.714139
vt 0.763745 0.713965
vt 0.446133 0.641654
vt 0.446257 0.701985
vt 0.510276 0.701645
vt 0.550441 0.701433
vt 0.550317 0.641031
vt 0.509254 0.641196
vn 0.999992 0.003122 -0.002674
vn 0.999992 0.003122 -0.002674
vn 0.999992 0.003122 -0.002674
vn -0.002282 0.860628 -0.509229
vn -0.003832 0.860208 -0.509929
vn -0.003739 0.860234 -0.509887
vn 0.003491 -0.999994 -0.000982
vn 0.003491 -0.999994 -0.000982
vn 0.003473 -0.999994 -0.000993
vn -0.999993 -0.003136 0.002175
vn -0.999993 -0.003136 0.002175
vn -0.999993 -0.003136 0.002175
vn -0.004106 0.860134 -0.510052
vn -0.004106 0.860134 -0.510052
vn 0.003495 -0.999993 -0.000980
vn 0.003495 -0.999993 -0.000980
vn 0.000000 0.000000 1.000000
vn -0.000000 0.000000 1.000000
vn -0.000000 0.000000 1.000000
vn -0.000000 0.000000 1.000000
vn -0.000000 0.000000 1.000000
vn 0.000000 0.000000 1.000000
s off
g Staircollide5
f 1/1/1 2/2/2 3/3/3
s 1
f 3/3/4 2/2/5 4/4/6
s 2
f 5/5/7 2/2/8 1/1/9
s off
f 6/6/10 7/7/11 8/8/12
s 1
f 2/2/5 7/7/13 4/4/6
f 4/4/6 7/7/13 6/6/14
s 2
f 2/2/8 5/5/7 7/7/15
f 7/7/15 5/5/7 8/8/16
s 3
f 8/10/17 5/11/18 6/9/19
f 6/9/19 5/11/18 4/14/20
f 4/14/20 5/11/18 3/13/21
f 5/11/18 1/12/22 3/13/21
