# This file uses centimeters as units for non-parametric coordinates.

g default
v -0.530701 -0.503462 0.195916
v -0.534057 0.423077 0.063718
v -0.534057 0.346154 -0.065513
v -0.534057 0.269231 -0.237445
v -0.534057 0.269231 -0.194744
v -0.192374 0.269231 -0.237445
v -0.534057 0.346154 -0.194744
v -0.533727 0.498383 0.412443
v -0.530375 -0.503348 0.413927
v -0.534052 0.498269 0.194432
v -0.534057 0.423077 -0.065513
v 0.500000 0.269231 -0.194744
v 0.503348 -0.500000 0.192949
v 0.502490 -0.500000 -0.237445
v 0.502418 -0.478651 -0.237445
v 0.502334 -0.453421 -0.237445
v 0.502233 -0.423144 -0.237445
v 0.502109 -0.386139 -0.237445
v 0.503673 -0.499887 0.410960
v 0.501954 -0.339883 -0.237445
v 0.500000 0.346154 -0.194744
v 0.501755 -0.280411 -0.237445
v -0.534057 0.500000 0.063718
v 0.501489 -0.201115 -0.237445
v 0.500000 0.346154 -0.065513
v 0.501118 -0.090101 -0.237445
v 0.500000 0.423077 -0.065513
v 0.500560 0.076421 -0.237445
v 0.500000 0.423077 0.063718
v 0.500326 0.500113 0.410960
v 0.500000 0.500000 0.063718
v 0.500000 0.269231 -0.237445
v 0.500000 0.243813 -0.237445
v 0.500000 0.500000 0.192949
v -0.534057 0.243813 -0.237445
v -0.265297 -0.502570 -0.237445
v -0.533498 0.076506 -0.237445
v -0.532941 -0.090312 -0.237445
v -0.532569 -0.201736 -0.237445
v -0.532303 -0.281429 -0.237445
v -0.532103 -0.341255 -0.237445
v -0.531948 -0.387821 -0.237445
v -0.531564 -0.503015 -0.237445
v -0.531823 -0.425095 -0.237445
v -0.531722 -0.455606 -0.237445
v -0.531637 -0.481041 -0.237445
vt 0.001900 0.051159
vt 0.252647 0.080972
vt 0.231829 0.110117
vt 0.393787 0.714357
vt 0.384157 0.714357
vt 0.393787 0.621888
vt 0.231829 0.139261
vt 0.211012 0.139261
vt 0.273026 0.002327
vt 0.001931 0.001992
vt 0.272996 0.051493
vt 0.252647 0.110117
vt 0.480818 0.714357
vt 0.501636 0.434513
vt 0.501636 0.714357
vt 0.569044 0.380870
vt 0.569044 0.283807
vt 0.574822 0.283807
vt 0.581650 0.283807
vt 0.589843 0.283807
vt 0.599858 0.283807
vt 0.281913 0.430706
vt 0.561666 0.380870
vt 0.561755 0.430037
vt 0.612376 0.283807
vt 0.445822 0.714357
vt 0.474967 0.434513
vt 0.474967 0.714357
vt 0.628471 0.283807
vt 0.273464 0.080972
vt 0.649930 0.283807
vt 0.542484 0.714357
vt 0.563301 0.434513
vt 0.563301 0.714357
vt 0.679974 0.283807
vt 0.507488 0.714357
vt 0.536632 0.434513
vt 0.536632 0.714357
vt 0.725039 0.283807
vt 0.480818 0.434513
vt 0.569153 0.713688
vt 0.589971 0.433844
vt 0.589971 0.713688
vt 0.680320 0.713686
vt 0.951884 0.434750
vt 0.951416 0.714593
vt 0.445822 0.434513
vt 0.681257 0.433844
vt 0.644989 0.713775
vt 0.674468 0.433932
vt 0.674468 0.713776
vt 0.542484 0.434513
vt 0.777219 0.293437
vt 0.798036 0.322581
vt 0.777219 0.283807
vt 0.770340 0.283807
vt 0.384157 0.434513
vt 0.393787 0.434513
vt 0.507488 0.434513
vt 0.839671 0.380870
vt 0.569075 0.430037
vt 0.596157 0.433844
vt 0.595822 0.713687
vt 0.818854 0.351726
vt 0.798036 0.293437
vt 0.569153 0.433844
vt 0.645324 0.433932
vt 0.818854 0.322581
vt 0.839702 0.430037
vt 0.839671 0.351726
vt 0.281825 0.381539
vt 0.204133 0.148891
vt 0.211012 0.148891
vt 0.353650 0.283807
vt 0.561434 0.283807
vt 0.158855 0.148891
vt 0.113709 0.148891
vt 0.083555 0.148891
vt 0.061988 0.148891
vt 0.045797 0.148891
vt 0.033195 0.148891
vt 0.281591 0.283807
vt 0.023108 0.148891
vt 0.014851 0.148891
vt 0.007968 0.148891
vt 0.002021 0.148891
vt 0.550659 0.048390
vt 0.473254 0.047996
vt 0.446409 0.047928
vt 0.446402 0.051295
vt 0.446393 0.055192
vt 0.446383 0.059867
vt 0.446371 0.065578
vt 0.446355 0.072713
vt 0.446335 0.081880
vt 0.446308 0.094090
vt 0.446270 0.111162
vt 0.446214 0.136722
vt 0.446158 0.162357
vt 0.446158 0.166251
vt 0.480605 0.166251
vt 0.550408 0.166251
vt 0.550409 0.162357
vt 0.550465 0.136709
vt 0.550521 0.111195
vt 0.550559 0.094185
vt 0.550585 0.082035
vt 0.550606 0.072923
vt 0.550621 0.065836
vt 0.550634 0.060166
vt 0.550644 0.055527
vt 0.550652 0.051661
vn -0.999993 -0.003343 0.001608
vn -0.999993 -0.003216 0.001895
vn -0.999993 -0.003216 0.001914
vn 0.000000 1.000000 0.000000
vn 0.000000 1.000000 0.000000
vn 0.000000 1.000000 0.000000
vn -1.000000 0.000000 0.000000
vn -0.999993 -0.003213 0.001912
vn -0.999993 -0.003344 0.001494
vn -0.999993 -0.003344 0.001494
vn -0.999993 -0.003307 0.001609
vn -1.000000 0.000000 0.000000
vn 0.000000 0.000000 -1.000000
vn 0.000000 0.000000 -1.000000
vn 0.000000 0.000000 -1.000000
vn 0.999993 0.003347 -0.001610
vn 0.999992 0.003350 -0.001993
vn 0.999992 0.003348 -0.001993
vn 0.999992 0.003346 -0.001993
vn 0.999992 0.003348 -0.001992
vn 0.999992 0.003347 -0.001993
vn 0.003349 -0.999994 0.000515
vn 0.003348 -0.999994 0.000191
vn 0.003349 -0.999994 0.000515
vn 0.999992 0.003347 -0.001992
vn 0.000000 1.000000 0.000000
vn 0.000000 1.000000 0.000000
vn 0.000000 1.000000 0.000000
vn 0.999992 0.003348 -0.001993
vn -1.000000 0.000000 0.000034
vn 0.999992 0.003347 -0.001993
vn 0.000000 0.000000 -1.000000
vn 0.000000 0.000000 -1.000000
vn 0.000000 0.000000 -1.000000
vn 0.999992 0.003347 -0.001993
vn 0.000000 1.000000 0.000000
vn 0.000000 1.000000 0.000000
vn 0.000000 1.000000 0.000000
vn 0.999992 0.003348 -0.001993
vn 0.000000 0.000000 -1.000000
vn 0.000000 0.000000 -1.000000
vn 0.000000 0.000000 -1.000000
vn 0.000000 0.000000 -1.000000
vn 0.002135 0.000764 0.999997
vn 0.002165 0.000733 0.999997
vn 0.001432 0.001486 0.999998
vn 0.000000 1.000000 0.000000
vn 0.002869 0.000010 0.999996
vn -0.001097 0.999990 0.004246
vn -0.001538 0.999998 0.001071
vn 0.000000 0.999912 0.013240
vn 0.000000 0.000000 -1.000000
vn 0.999993 0.003221 -0.001917
vn 0.999993 0.003224 -0.001919
vn 1.000000 0.000000 0.000000
vn 0.999993 0.003313 -0.001972
vn 0.000000 1.000000 0.000000
vn 0.000000 1.000000 0.000000
vn 0.000000 1.000000 0.000000
vn 0.999993 0.003310 -0.001616
vn 0.999993 0.003348 -0.001495
vn -0.001674 0.999999 -0.000517
vn -0.001674 0.999999 -0.000517
vn 0.999993 0.003223 -0.001919
vn 1.000000 0.000000 0.000000
vn 0.000000 0.000000 -1.000000
vn -0.001674 0.999999 -0.000324
vn 1.000000 0.000000 0.000000
vn 0.999993 0.003348 -0.001495
vn 1.000000 0.000000 0.000000
vn 0.003226 -0.999995 0.000130
vn -0.999993 -0.003304 0.001966
vn -1.000000 0.000000 0.000000
vn 0.003151 -0.999995 -0.000127
vn 0.003348 -0.999994 -0.000007
vn -0.999993 -0.003339 0.001987
vn -0.999993 -0.003339 0.001987
vn -0.999992 -0.003339 0.001987
vn -0.999992 -0.003339 0.001987
vn -0.999992 -0.003338 0.001987
vn -0.999993 -0.003338 0.001987
vn 0.001672 -0.999998 -0.001033
vn -0.999993 -0.003340 0.001987
vn -0.999992 -0.003341 0.001987
vn -0.999993 -0.003317 0.001988
vn -0.999993 -0.003286 0.001990
vn 0.000000 0.000000 -1.000000
vn 0.000000 0.000000 -1.000000
vn 0.000000 0.000000 -1.000000
vn 0.000000 0.000000 -1.000000
vn 0.000000 0.000000 -1.000000
vn 0.000000 0.000000 -1.000000
vn 0.000000 0.000000 -1.000000
vn -0.000000 0.000000 -1.000000
vn -0.000000 0.000000 -1.000000
vn -0.000000 0.000000 -1.000000
vn 0.000000 0.000000 -1.000000
vn -0.000000 0.000000 -1.000000
vn -0.000000 0.000000 -1.000000
vn 0.000000 0.000000 -1.000000
vn 0.000000 0.000000 -1.000000
vn 0.000000 0.000000 -1.000000
vn -0.000000 0.000000 -1.000000
vn 0.000000 0.000000 -1.000000
vn 0.000000 0.000000 -1.000000
vn -0.000000 0.000000 -1.000000
vn -0.000000 0.000000 -1.000000
vn 0.000000 0.000000 -1.000000
vn 0.000000 0.000000 -1.000000
vn 0.000001 0.000000 -1.000000
vn -0.000001 0.000000 -1.000000
vn -0.000001 0.000000 -1.000000
s 1
g Stair7
f 1/1/1 2/2/2 3/3/3
s 2
f 4/4/4 5/5/5 6/6/6
s 1
f 7/7/7 5/8/8 3/3/3
f 8/9/9 1/1/1 9/10/10
f 1/1/1 10/11/11 2/2/2
f 11/12/12 3/3/3 2/2/2
f 10/11/11 1/1/1 8/9/9
s 4
f 7/13/13 12/14/14 5/15/15
s 5
f 13/16/16 14/17/17 15/18/18
f 13/16/16 15/18/18 16/19/19
f 13/16/16 16/19/19 17/20/20
f 13/16/16 17/20/20 18/21/21
s 6
f 9/22/22 13/23/23 19/24/24
s 5
f 13/16/16 18/21/21 20/25/25
s 7
f 3/26/26 21/27/27 7/28/28
s 5
f 22/29/29 13/16/16 20/25/25
s 1
f 23/30/30 2/2/2 10/11/11
s 5
f 24/31/31 13/16/16 22/29/29
s 8
f 11/32/32 25/33/33 3/34/34
s 5
f 26/35/35 13/16/16 24/31/31
s 9
f 2/36/36 27/37/37 11/38/38
s 5
f 28/39/39 13/16/16 26/35/35
s 4
f 21/40/40 12/14/14 7/13/13
s 10
f 23/41/41 29/42/42 2/43/43
s 11
f 9/44/44 30/45/45 8/46/46
s 7
f 25/47/47 21/27/27 3/26/26
s 11
f 19/48/48 30/45/45 9/44/44
s 12
f 10/49/49 31/50/50 23/51/51
s 8
f 27/52/52 25/33/33 11/32/32
s 5
f 13/16/16 12/53/53 25/54/54
f 32/55/55 12/53/53 33/56/56
s 2
f 5/5/5 12/57/57 6/6/6
f 6/6/6 12/57/57 32/58/58
s 9
f 29/59/59 27/37/37 2/36/36
s 5
f 13/16/16 34/60/60 19/61/61
s 12
f 30/62/62 10/49/49 8/63/63
s 5
f 13/16/16 25/54/54 29/64/64
f 21/65/65 25/54/54 12/53/53
s 10
f 31/66/66 29/42/42 23/41/41
s 5
f 13/16/16 29/64/64 34/60/60
s 12
f 34/67/67 31/50/50 10/49/49
s 5
f 27/68/68 29/64/64 25/54/54
s 12
f 34/67/67 10/49/49 30/62/62
s 5
f 19/61/61 34/60/60 30/69/69
f 12/53/53 13/16/16 33/56/56
f 33/56/56 13/16/16 28/39/39
f 31/70/70 34/60/60 29/64/64
s 6
f 1/71/71 13/23/23 9/22/22
s 1
f 35/72/72 5/8/8 4/73/73
s 6
f 1/71/71 36/74/74 13/23/23
f 13/23/23 36/74/74 14/75/75
s 1
f 1/1/1 3/3/3 5/8/8
f 5/8/8 35/72/72 1/1/1
f 37/76/76 1/1/1 35/72/72
f 38/77/77 1/1/1 37/76/76
f 39/78/78 1/1/1 38/77/77
f 40/79/79 1/1/1 39/78/78
f 41/80/80 1/1/1 40/79/79
f 1/1/1 41/80/80 42/81/81
s 6
f 36/74/74 1/71/71 43/82/82
s 1
f 1/1/1 42/81/81 44/83/83
f 1/1/1 44/83/83 45/84/84
f 1/1/1 45/84/84 46/85/85
f 1/1/1 46/85/85 43/86/86
s 17
f 14/87/87 36/88/88 15/112/89
f 4/100/90 6/101/91 35/99/92
f 32/102/93 33/103/94 6/101/91
f 43/89/95 46/90/96 36/88/88
f 15/112/89 36/88/88 16/111/97
f 33/103/94 28/104/98 6/101/91
f 16/111/97 36/88/88 17/110/99
f 46/90/96 45/91/100 36/88/88
f 35/99/92 6/101/91 37/98/101
f 17/110/99 36/88/88 18/109/102
f 18/109/102 36/88/88 20/108/103
f 45/91/100 44/92/104 36/88/88
f 20/108/103 36/88/88 22/107/105
f 28/104/98 26/105/106 6/101/91
f 22/107/105 36/88/88 24/106/107
f 44/92/104 42/93/108 36/88/88
f 24/106/107 36/88/88 26/105/106
f 26/105/106 36/88/88 6/101/91
f 6/101/91 36/88/88 37/98/101
f 37/98/101 36/88/88 38/97/109
f 38/97/109 36/88/88 39/96/110
f 39/96/110 36/88/88 40/95/111
f 40/95/111 36/88/88 41/94/112
f 36/88/88 42/93/108 41/94/112
