# This file uses centimeters as units for non-parametric coordinates.

g default
v 0.500185 0.143539 0.272851
v 0.500000 0.160540 0.208584
v 0.500000 0.198794 0.272851
v 0.500000 0.237463 0.208584
v 0.500000 0.237463 0.272851
v -0.014239 0.237463 0.272851
v 0.500000 0.160540 0.079354
v 0.500000 0.083617 0.079354
v 0.500501 0.049064 0.272851
v -0.534057 0.237463 0.208584
v 0.500000 0.083617 -0.049877
v 0.500000 0.006694 -0.049877
v -0.534057 0.160540 0.208584
v -0.534057 0.160540 0.079354
v 0.500000 0.006694 -0.179108
v 0.500000 -0.070229 -0.179108
v 0.500760 -0.028233 0.272851
v 0.144062 -0.148347 0.272851
v 0.500000 -0.147152 -0.308338
v 0.501158 -0.147152 0.272851
v -0.534057 0.083617 0.079354
v -0.534057 0.083617 -0.049877
v 0.500000 -0.070229 -0.308338
v 0.500976 -0.092648 0.272851
v -0.534057 0.006694 -0.049877
v -0.534057 0.006694 -0.179108
v -0.534057 0.198794 0.272851
v -0.533872 0.143391 0.272851
v -0.534057 -0.070229 -0.179108
v -0.534057 -0.070229 -0.308338
v -0.534057 0.237463 0.272851
v -0.534052 -0.148883 -0.306855
v -0.533555 0.048626 0.272851
v -0.532897 -0.149479 0.272851
v -0.533296 -0.028945 0.272851
v -0.533081 -0.093612 0.272851
vt 0.647713 0.133064
vt 0.652314 0.118570
vt 0.662667 0.133064
vt 0.673131 0.118570
vt 0.673131 0.133064
vt 0.090480 0.434513
vt 0.104974 0.434513
vt 0.090480 0.573680
vt 0.652314 0.089425
vt 0.631496 0.089425
vt 0.622145 0.133064
vt 0.110826 0.434513
vt 0.131643 0.434513
vt 0.110826 0.714357
vt 0.631496 0.060281
vt 0.610679 0.060281
vt 0.014164 0.434513
vt 0.043308 0.434513
vt 0.014164 0.714357
vt 0.049160 0.434513
vt 0.069978 0.434513
vt 0.049160 0.714357
vt 0.610679 0.031136
vt 0.589861 0.031136
vt 0.601227 0.133064
vt 0.464434 0.133064
vt 0.560761 0.001992
vt 0.561074 0.133064
vt 0.029969 0.718164
vt 0.059113 0.718164
vt 0.029969 0.998008
vt 0.131643 0.714357
vt 0.001900 0.718164
vt 0.022717 0.718164
vt 0.001900 0.998008
vt 0.589861 0.001992
vt 0.569044 0.001992
vt 0.043308 0.714357
vt 0.583794 0.133064
vt 0.093171 0.718164
vt 0.122315 0.718164
vt 0.093171 0.998008
vt 0.069978 0.714357
vt 0.065288 0.718164
vt 0.086105 0.718164
vt 0.065288 0.998008
vt 0.059113 0.998008
vt 0.096459 0.299634
vt 0.086107 0.314128
vt 0.081466 0.299634
vt 0.156373 0.718164
vt 0.185517 0.718164
vt 0.156373 0.998008
vt 0.569044 0.133064
vt 0.022717 0.998008
vt 0.128490 0.718164
vt 0.149307 0.718164
vt 0.128490 0.998008
vt 0.086107 0.343273
vt 0.065289 0.343273
vt 0.104974 0.714357
vt 0.090480 0.714357
vt 0.122315 0.998008
vt 0.086105 0.998008
vt 0.065289 0.372417
vt 0.044472 0.372417
vt 0.185517 0.998008
vt 0.149775 0.998007
vt 0.044472 0.401561
vt 0.023654 0.401561
vt 0.023654 0.430706
vt 0.002368 0.430371
vt 0.106924 0.299634
vt 0.106924 0.314128
vt 0.055820 0.299634
vt 0.281230 0.133064
vt 0.280918 0.002327
vt 0.034827 0.299634
vt 0.017326 0.299634
vt 0.002207 0.299634
vt 0.550459 0.671546
vt 0.550427 0.657070
vt 0.550409 0.648604
vt 0.550409 0.642679
vt 0.498564 0.642679
vt 0.446158 0.642679
vt 0.446158 0.648604
vt 0.446177 0.657093
vt 0.446209 0.671613
vt 0.446235 0.683498
vt 0.446256 0.693406
vt 0.446275 0.701967
vt 0.514524 0.701793
vt 0.550525 0.701610
vt 0.550507 0.693259
vt 0.550485 0.683389
vn 0.999992 0.003347 -0.001992
vn 0.999995 0.002621 -0.001560
vn 0.999999 0.001063 -0.000633
vn 1.000000 0.000000 0.000000
vn 1.000000 0.000000 0.000000
vn 0.000000 1.000000 0.000000
vn 0.000000 1.000000 -0.000000
vn 0.000000 1.000000 -0.000000
vn 1.000000 0.000000 0.000000
vn 0.999995 0.002801 -0.001667
vn 0.999992 0.003347 -0.001993
vn 0.000000 0.000000 -1.000000
vn 0.000000 0.000000 -1.000000
vn 0.000000 0.000000 -1.000000
vn 1.000000 0.000000 0.000000
vn 0.999994 0.002930 -0.001744
vn 0.000000 1.000000 0.000000
vn 0.000000 1.000000 0.000000
vn 0.000000 1.000000 0.000000
vn 0.000000 0.000000 -1.000000
vn 0.000000 0.000000 -1.000000
vn 0.000000 0.000000 -1.000000
vn 1.000000 0.000000 0.000000
vn 0.999994 0.002998 -0.001784
vn 0.999992 0.003348 -0.001992
vn 0.001938 -0.999998 -0.000870
vn 0.001936 -0.999998 -0.000871
vn 0.003347 -0.999994 -0.000007
vn 0.000000 1.000000 0.000000
vn 0.000000 1.000000 0.000000
vn 0.000000 1.000000 0.000000
vn 0.000000 0.000000 -1.000000
vn 0.000000 0.000000 -1.000000
vn 0.000000 0.000000 -1.000000
vn 0.000000 0.000000 -1.000000
vn 1.000000 0.000000 0.000000
vn 0.999996 0.002344 -0.001395
vn 0.000000 1.000000 0.000000
vn 0.999992 0.003347 -0.001993
vn 0.000000 1.000000 0.000000
vn 0.000000 1.000000 0.000000
vn 0.000000 1.000000 0.000000
vn 0.000000 0.000000 -1.000000
vn 0.000000 0.000000 -1.000000
vn 0.000000 0.000000 -1.000000
vn 0.000000 0.000000 -1.000000
vn 0.000000 1.000000 0.000000
vn -0.999999 -0.001063 0.000632
vn -0.999995 -0.002616 0.001557
vn -0.999993 -0.003339 0.001987
vn 0.000000 1.000000 0.000000
vn 0.000000 1.000000 0.000000
vn 0.000000 1.000000 0.000000
vn 0.999992 0.003347 -0.001993
vn 0.000000 0.000000 -1.000000
vn 0.000000 0.000000 -1.000000
vn -0.000069 -0.000930 -1.000000
vn -0.001338 -0.017985 -0.999837
vn -1.000000 0.000000 0.000000
vn -0.999995 -0.002795 0.001664
vn 0.000000 1.000000 -0.000000
vn 0.000000 1.000000 0.000000
vn 0.000000 1.000000 0.000000
vn 0.000000 0.000000 -1.000000
vn -1.000000 0.000000 0.000000
vn -0.999994 -0.002924 0.001740
vn 0.000000 1.000000 0.000000
vn -0.001403 -0.018857 -0.999821
vn -1.000000 0.000000 0.000000
vn -0.999994 -0.002953 0.001781
vn -1.000000 -0.000056 0.000000
vn -0.999996 -0.002336 0.001404
vn -1.000000 0.000000 0.000000
vn -1.000000 0.000000 0.000000
vn -0.999992 -0.003338 0.001987
vn 0.001672 -0.999998 -0.001033
vn 0.001672 -0.999998 -0.001033
vn -0.999993 -0.003339 0.001987
vn -0.999993 -0.003311 0.001989
vn -0.999993 -0.003286 0.001990
vn 0.000000 0.000000 1.000000
vn 0.000000 0.000000 1.000000
vn 0.000000 0.000000 1.000000
vn 0.000000 0.000000 1.000000
vn 0.000000 0.000000 1.000000
vn -0.000000 0.000000 1.000000
vn -0.000000 0.000000 1.000000
vn 0.000000 0.000000 1.000000
vn 0.000000 0.000000 1.000000
vn -0.000000 0.000000 1.000000
vn 0.000000 0.000000 1.000000
vn 0.000000 0.000000 1.000000
vn 0.000000 0.000000 1.000000
vn 0.000000 0.000000 1.000000
vn 0.000000 0.000000 1.000000
vn 0.000000 0.000000 1.000000
s 1
g Stair5
f 1/1/1 2/2/2 3/3/3
f 2/2/2 4/4/4 3/3/3
f 3/3/3 4/4/4 5/5/5
s 2
f 5/6/6 4/7/7 6/8/8
s 1
f 7/9/9 2/2/2 8/10/10
f 8/10/10 2/2/2 9/11/11
f 9/11/11 2/2/2 1/1/1
s 4
f 4/12/12 2/13/13 10/14/14
s 1
f 11/15/15 8/10/10 12/16/16
s 6
f 2/17/17 7/18/18 13/19/19
s 7
f 7/20/20 8/21/21 14/22/22
s 1
f 15/23/23 12/16/16 16/24/24
f 12/16/16 8/10/10 17/25/25
f 17/25/25 8/10/10 9/11/11
s 9
f 18/26/26 19/27/27 20/28/28
s 10
f 8/29/29 11/30/30 21/31/31
s 4
f 10/14/14 2/13/13 13/32/32
s 11
f 11/33/33 12/34/34 22/35/35
s 1
f 23/36/36 16/24/24 19/37/37
s 6
f 13/19/19 7/18/18 14/38/38
s 1
f 16/24/24 12/16/16 24/39/39
f 24/39/39 12/16/16 17/25/25
s 13
f 12/40/40 15/41/41 25/42/42
s 7
f 14/22/22 8/21/21 21/43/43
s 14
f 15/44/44 16/45/45 26/46/46
s 10
f 21/31/31 11/30/30 22/47/47
s 15
f 27/48/48 13/49/49 28/50/50
s 16
f 16/51/51 23/52/52 29/53/53
s 1
f 19/37/37 16/24/24 20/54/54
f 20/54/54 16/24/24 24/39/39
s 11
f 22/35/35 12/34/34 25/55/55
s 17
f 23/56/56 19/57/57 30/58/58
s 15
f 14/59/59 21/60/60 13/49/49
s 2
f 4/7/7 10/61/61 6/8/8
f 6/8/8 10/61/61 31/62/62
s 13
f 25/42/42 15/41/41 26/63/63
s 14
f 26/46/46 16/45/45 29/64/64
s 15
f 22/65/65 25/66/66 21/60/60
s 16
f 29/53/53 23/52/52 30/67/67
s 17
f 30/58/58 19/57/57 32/68/68
s 15
f 26/69/69 29/70/70 25/66/66
f 30/71/71 32/72/72 29/70/70
f 31/73/73 10/74/74 27/48/48
f 27/48/48 10/74/74 13/49/49
f 28/50/50 13/49/49 33/75/75
f 33/75/75 13/49/49 21/60/60
s 9
f 19/27/27 18/26/26 32/77/76
f 32/77/76 18/26/26 34/76/77
s 15
f 33/75/75 21/60/60 35/78/78
f 35/78/78 21/60/60 25/66/66
f 35/78/78 25/66/66 36/79/79
f 36/79/79 25/66/66 29/70/70
f 36/79/79 29/70/70 34/80/80
f 34/80/80 29/70/70 32/72/72
s 22
f 5/84/81 6/85/82 3/83/83
f 31/86/84 27/87/85 6/85/82
f 20/94/86 24/95/87 18/93/88
f 34/92/89 18/93/88 36/91/90
f 3/83/83 6/85/82 1/82/91
f 27/87/85 28/88/92 6/85/82
f 36/91/90 18/93/88 35/90/93
f 24/95/87 17/96/94 18/93/88
f 1/82/91 6/85/82 9/81/95
f 28/88/92 33/89/96 6/85/82
f 35/90/93 18/93/88 33/89/96
f 33/89/96 18/93/88 6/85/82
f 17/96/94 9/81/95 18/93/88
f 9/81/95 6/85/82 18/93/88
