# This file uses centimeters as units for non-parametric coordinates.

g default
v -0.534057 0.192308 0.091339
v 0.500000 0.192308 -0.037892
v -0.534057 0.192308 -0.037892
v 0.502233 -0.423144 0.177868
v 0.500501 -0.303784 -0.490548
v 0.500185 -0.209309 -0.490548
v 0.502109 -0.386139 0.177868
v 0.500000 -0.038462 -0.425584
v 0.500000 -0.038462 -0.296354
v 0.500000 -0.115385 -0.425584
v 0.500000 0.115385 -0.167123
v 0.500000 0.038462 -0.167123
v -0.534057 0.115385 -0.167123
v -0.534057 0.269231 0.091339
v 0.500000 0.192308 0.091339
v 0.500000 -0.154054 -0.490548
v 0.501954 -0.339883 0.177868
v 0.500000 0.115385 -0.037892
v -0.534057 0.115385 -0.037892
v 0.500000 0.038462 -0.296354
v -0.192374 0.269231 0.177868
v 0.500000 0.269231 0.091339
v -0.534057 0.269231 0.177868
v 0.501755 -0.280411 0.177868
v 0.501489 -0.201115 0.177868
v 0.500000 0.269231 0.177868
v 0.500560 0.076421 0.177868
v 0.500000 0.243813 0.177868
v 0.501118 -0.090101 0.177868
v -0.534057 0.038462 -0.167123
v 0.502334 -0.453421 0.177868
v 0.500760 -0.381081 -0.490548
v 0.500000 -0.115385 -0.490548
v -0.534057 0.038462 -0.296354
v 0.502418 -0.478651 0.177868
v 0.500976 -0.445496 -0.490548
v -0.534057 0.243813 0.177868
v -0.533498 0.076506 0.177868
v -0.534057 -0.038462 -0.296354
v 0.502490 -0.500000 0.177868
v 0.501158 -0.500000 -0.490548
v -0.534057 -0.038462 -0.425584
v -0.532941 -0.090312 0.177868
v -0.534057 -0.115385 -0.425584
v -0.265297 -0.502570 0.177868
v 0.144062 -0.501195 -0.490548
v -0.014239 -0.115385 -0.490548
v -0.532569 -0.201736 0.177868
v -0.534057 -0.115385 -0.490548
v -0.534057 -0.154054 -0.490548
v -0.532303 -0.281429 0.177868
v -0.532103 -0.341255 0.177868
v -0.531564 -0.503015 0.177868
v -0.532897 -0.502327 -0.490548
v -0.531948 -0.387821 0.177868
v -0.533872 -0.209457 -0.490548
v -0.533555 -0.304222 -0.490548
v -0.531823 -0.425095 0.177868
v -0.533296 -0.381793 -0.490548
v -0.531722 -0.455606 0.177868
v -0.533081 -0.446460 -0.490548
v -0.531637 -0.481041 0.177868
vt 0.322491 0.714357
vt 0.351636 0.434513
vt 0.351636 0.714357
vt 0.589843 0.283807
vt 0.622145 0.133064
vt 0.647713 0.133064
vt 0.599858 0.283807
vt 0.693949 0.147714
vt 0.693949 0.176859
vt 0.673131 0.147714
vt 0.295822 0.434513
vt 0.316639 0.434513
vt 0.295822 0.714357
vt 0.419153 0.714357
vt 0.439970 0.434513
vt 0.439970 0.714357
vt 0.662667 0.133064
vt 0.612376 0.283807
vt 0.260826 0.434513
vt 0.289970 0.434513
vt 0.260826 0.714357
vt 0.714766 0.176859
vt 0.714766 0.206003
vt 0.357487 0.434513
vt 0.378305 0.434513
vt 0.357487 0.714357
vt 0.393787 0.621888
vt 0.413301 0.434513
vt 0.413301 0.714357
vt 0.393787 0.714357
vt 0.628471 0.283807
vt 0.322491 0.434513
vt 0.735584 0.206003
vt 0.735584 0.235148
vt 0.419153 0.434513
vt 0.649930 0.283807
vt 0.756401 0.235148
vt 0.756401 0.264292
vt 0.393787 0.434513
vt 0.725039 0.283807
vt 0.770340 0.283807
vt 0.679974 0.283807
vt 0.777219 0.264292
vt 0.777219 0.283807
vt 0.199160 0.434513
vt 0.228305 0.434513
vt 0.199160 0.714357
vt 0.581650 0.283807
vt 0.601227 0.133064
vt 0.378305 0.714357
vt 0.673131 0.133064
vt 0.234156 0.434513
vt 0.254974 0.434513
vt 0.234156 0.714357
vt 0.574822 0.283807
vt 0.583794 0.133064
vt 0.289970 0.714357
vt 0.204133 0.148891
vt 0.190194 0.168406
vt 0.158855 0.148891
vt 0.137495 0.434513
vt 0.166639 0.434513
vt 0.137495 0.714357
vt 0.569044 0.283807
vt 0.569044 0.133064
vt 0.211012 0.148891
vt 0.211012 0.168406
vt 0.316639 0.714357
vt 0.172491 0.434513
vt 0.193308 0.434513
vt 0.172491 0.714357
vt 0.190194 0.197550
vt 0.169377 0.197550
vt 0.228305 0.714357
vt 0.254974 0.714357
vt 0.169377 0.226695
vt 0.148559 0.226695
vt 0.166639 0.714357
vt 0.113709 0.148891
vt 0.193308 0.714357
vt 0.148559 0.255839
vt 0.127742 0.255839
vt 0.353650 0.283807
vt 0.464434 0.133064
vt 0.561074 0.133064
vt 0.561434 0.283807
vt 0.090480 0.573680
vt 0.075829 0.714357
vt 0.075829 0.434513
vt 0.090480 0.434513
vt 0.083555 0.148891
vt 0.090480 0.714357
vt 0.127742 0.284984
vt 0.106924 0.284984
vt 0.096459 0.299634
vt 0.106924 0.299634
vt 0.061988 0.148891
vt 0.045797 0.148891
vt 0.281591 0.283807
vt 0.281230 0.133064
vt 0.033195 0.148891
vt 0.081466 0.299634
vt 0.055820 0.299634
vt 0.023108 0.148891
vt 0.034827 0.299634
vt 0.014851 0.148891
vt 0.017326 0.299634
vt 0.007968 0.148891
vt 0.002207 0.299634
vt 0.002021 0.148891
vt 0.550644 0.055527
vt 0.550634 0.060166
vt 0.550621 0.065836
vt 0.550606 0.072923
vt 0.550585 0.082035
vt 0.550559 0.094185
vt 0.550521 0.111195
vt 0.550465 0.136709
vt 0.550409 0.162357
vt 0.550408 0.166251
vt 0.480605 0.166251
vt 0.446158 0.166251
vt 0.446158 0.162357
vt 0.446214 0.136722
vt 0.446270 0.111162
vt 0.446308 0.094090
vt 0.446335 0.081880
vt 0.446355 0.072713
vt 0.446371 0.065578
vt 0.446383 0.059867
vt 0.446393 0.055192
vt 0.446402 0.051295
vt 0.446409 0.047928
vt 0.473254 0.047996
vt 0.550659 0.048390
vt 0.550652 0.051661
vt 0.446256 0.693406
vt 0.446235 0.683498
vt 0.446209 0.671613
vt 0.446177 0.657093
vt 0.446158 0.648604
vt 0.446158 0.642679
vt 0.498564 0.642679
vt 0.550409 0.642679
vt 0.550409 0.648604
vt 0.550427 0.657070
vt 0.550459 0.671546
vt 0.550485 0.683389
vt 0.550507 0.693259
vt 0.550525 0.701610
vt 0.514524 0.701793
vt 0.446275 0.701967
vn 0.000000 1.000000 0.000000
vn 0.000000 1.000000 0.000000
vn 0.000000 1.000000 0.000000
vn 0.999992 0.003348 -0.001993
vn 0.999992 0.003347 -0.001993
vn 0.999992 0.003349 -0.001993
vn 0.999992 0.003347 -0.001993
vn 1.000000 0.000000 0.000000
vn 0.999993 0.003130 -0.001863
vn 0.999993 0.003111 -0.001852
vn 0.000000 0.000000 -1.000000
vn 0.000000 0.000000 -1.000000
vn 0.000000 0.000000 -1.000000
vn 0.000000 0.000000 -1.000000
vn 0.000000 0.000000 -1.000000
vn 0.000000 0.000000 -1.000000
vn 0.999992 0.003349 -0.001993
vn 0.999993 0.003239 -0.001929
vn 0.000000 1.000000 0.000000
vn 0.000000 1.000000 0.000000
vn 0.000000 1.000000 0.000000
vn 1.000000 0.000000 0.000000
vn 0.999994 0.003077 -0.001832
vn 0.000000 0.000000 -1.000000
vn 0.000000 0.000000 -1.000000
vn 0.000000 0.000000 -1.000000
vn 0.000000 1.000000 -0.000000
vn 0.000000 1.000000 -0.000000
vn 0.000000 1.000000 -0.000000
vn 0.000000 1.000000 0.000000
vn 0.999992 0.003348 -0.001992
vn 0.000000 1.000000 0.000000
vn 1.000000 0.000000 0.000000
vn 0.999994 0.002950 -0.001756
vn 0.000000 0.000000 -1.000000
vn 0.999992 0.003347 -0.001993
vn 1.000000 0.000000 0.000000
vn 0.999995 0.002760 -0.001643
vn 0.000000 1.000000 0.000000
vn 0.999992 0.003347 -0.001993
vn 0.999997 0.002153 -0.001282
vn 0.999992 0.003348 -0.001992
vn 1.000000 0.000000 0.000000
vn 1.000000 0.000000 0.000000
vn 0.000000 1.000000 0.000000
vn 0.000000 1.000000 0.000000
vn 0.000000 1.000000 0.000000
vn 0.999992 0.003348 -0.001993
vn 0.999992 0.003347 -0.001993
vn 0.000000 0.000000 -1.000000
vn 1.000000 0.000000 0.000000
vn 0.000000 0.000000 -1.000000
vn 0.000000 0.000000 -1.000000
vn 0.000000 0.000000 -1.000000
vn 0.999992 0.003350 -0.001993
vn 0.999992 0.003347 -0.001993
vn 0.000000 1.000000 0.000000
vn -0.999997 -0.002148 0.001278
vn -0.999995 -0.002753 0.001639
vn -0.999992 -0.003339 0.001987
vn 0.000000 1.000000 0.000000
vn 0.000000 1.000000 0.000000
vn 0.000000 1.000000 0.000000
vn 0.999992 0.003350 -0.001993
vn 0.999992 0.003347 -0.001993
vn -1.000000 0.000000 0.000000
vn -1.000000 0.000000 0.000000
vn 0.000000 0.000000 -1.000000
vn 0.000000 0.000000 -1.000000
vn 0.000000 0.000000 -1.000000
vn 0.000000 0.000000 -1.000000
vn -1.000000 0.000000 0.000000
vn -0.999994 -0.002942 0.001752
vn 0.000000 1.000000 0.000000
vn 0.000000 0.000000 -1.000000
vn -1.000000 0.000000 0.000000
vn -0.999994 -0.003070 0.001827
vn 0.000000 1.000000 0.000000
vn -0.999993 -0.003339 0.001987
vn 0.000000 0.000000 -1.000000
vn -1.000000 0.000000 0.000000
vn -0.999993 -0.003122 0.001859
vn 0.002431 -0.999997 -0.000568
vn 0.002730 -0.999996 -0.000385
vn 0.003348 -0.999994 -0.000007
vn 0.003347 -0.999994 -0.000007
vn 0.000000 1.000000 0.000000
vn 0.000000 1.000000 0.000000
vn 0.000000 1.000000 0.000000
vn 0.000000 1.000000 0.000000
vn -0.999992 -0.003339 0.001987
vn 0.000000 1.000000 0.000000
vn -1.000000 0.000000 0.000000
vn -0.999994 -0.003103 0.001847
vn -0.999993 -0.003233 0.001924
vn -1.000000 0.000000 0.000000
vn -0.999992 -0.003339 0.001987
vn -0.999992 -0.003338 0.001987
vn 0.001672 -0.999998 -0.001033
vn 0.001672 -0.999998 -0.001033
vn -0.999992 -0.003339 0.001987
vn -0.999993 -0.003339 0.001987
vn -0.999992 -0.003338 0.001987
vn -0.999992 -0.003339 0.001987
vn -0.999992 -0.003338 0.001987
vn -0.999993 -0.003341 0.001987
vn -0.999993 -0.003315 0.001989
vn -0.999993 -0.003314 0.001989
vn -0.999993 -0.003288 0.001990
vn -0.999993 -0.003287 0.001990
vn 0.000000 0.000000 1.000000
vn -0.000000 0.000000 1.000000
vn -0.000000 0.000000 1.000000
vn 0.000000 0.000000 1.000000
vn 0.000000 0.000000 1.000000
vn 0.000000 0.000000 1.000000
vn 0.000000 0.000000 1.000000
vn -0.000000 0.000000 1.000000
vn 0.000000 0.000000 1.000000
vn 0.000000 0.000000 1.000000
vn 0.000000 0.000000 1.000000
vn 0.000000 0.000000 1.000000
vn -0.000000 0.000000 1.000000
vn -0.000000 0.000000 1.000000
vn 0.000000 0.000000 1.000000
vn -0.000000 0.000000 1.000000
vn -0.000000 0.000000 1.000000
vn -0.000000 0.000000 1.000000
vn 0.000000 0.000000 1.000000
vn 0.000000 0.000000 1.000000
vn 0.000000 0.000000 1.000000
vn 0.000000 0.000000 1.000000
vn 0.000000 0.000000 1.000000
vn -0.000000 0.000000 1.000000
vn -0.000000 0.000000 1.000000
vn 0.000000 0.000000 1.000000
vn 0.000000 0.000000 -1.000000
vn -0.000000 0.000000 -1.000000
vn 0.000000 0.000000 -1.000000
vn 0.000000 0.000000 -1.000000
vn -0.000000 0.000000 -1.000000
vn 0.000000 0.000000 -1.000000
vn 0.000000 0.000000 -1.000000
vn -0.000000 0.000000 -1.000000
vn -0.000000 0.000000 -1.000000
vn 0.000000 0.000000 -1.000000
vn 0.000000 0.000000 -1.000000
vn -0.000000 0.000000 -1.000000
vn 0.000000 0.000000 -1.000000
vn -0.000000 0.000000 -1.000000
vn -0.000000 0.000000 -1.000000
vn 0.000000 0.000000 -1.000000
s 1
g Stair6
f 1/1/1 2/2/2 3/3/3
s 2
f 4/4/4 5/5/5 7/7/6
f 7/7/6 5/5/5 6/6/7
f 8/8/8 9/9/9 10/10/10
s 4
f 11/11/11 12/12/12 13/13/13
s 5
f 14/14/14 15/15/15 1/16/16
s 2
f 7/7/6 6/6/7 17/18/17
f 6/6/7 16/17/18 17/18/17
f 16/17/18 10/10/10 17/18/17
s 6
f 18/19/19 11/20/20 19/21/21
s 2
f 20/22/22 12/23/23 9/9/9
s 8
f 2/24/24 18/25/25 3/26/26
s 9
f 22/28/27 14/29/28 21/27/29
f 21/27/29 14/29/28 23/30/30
s 2
f 10/10/10 9/9/9 17/18/17
f 17/18/17 9/9/9 24/31/31
s 1
f 15/32/32 2/2/2 1/1/1
s 2
f 11/33/33 18/34/34 12/23/23
s 5
f 22/35/35 15/15/15 14/14/14
s 2
f 9/9/9 12/23/23 24/31/31
f 24/31/31 12/23/23 25/36/36
f 2/37/37 15/38/38 18/34/34
s 9
f 26/39/39 22/28/27 21/27/29
s 2
f 27/40/40 15/38/38 28/41/41
f 25/36/36 12/23/23 29/42/42
f 29/42/42 12/23/23 18/34/34
f 29/42/42 18/34/34 27/40/40
f 27/40/40 18/34/34 15/38/38
f 15/38/38 22/43/43 28/41/41
f 28/41/41 22/43/43 26/44/44
s 12
f 12/45/45 20/46/46 30/47/47
s 2
f 31/48/48 32/49/49 4/4/4
f 4/4/4 32/49/49 5/5/5
s 8
f 3/26/26 18/25/25 19/50/50
s 2
f 33/51/51 10/10/10 16/17/18
s 14
f 20/52/52 9/53/53 34/54/54
s 2
f 35/55/55 36/56/56 31/48/48
f 31/48/48 36/56/56 32/49/49
s 6
f 19/21/21 11/20/20 13/57/57
s 16
f 37/58/58 1/59/59 38/60/60
s 17
f 9/61/61 8/62/62 39/63/63
s 2
f 40/64/64 41/65/65 35/55/55
f 35/55/55 41/65/65 36/56/56
s 16
f 23/66/66 14/67/67 37/58/58
f 37/58/58 14/67/67 1/59/59
s 4
f 13/13/13 12/12/12 30/68/68
s 18
f 8/69/69 10/70/70 42/71/71
s 16
f 3/72/72 19/73/73 1/59/59
s 12
f 30/47/47 20/46/46 34/74/74
s 14
f 34/54/54 9/53/53 39/75/75
s 16
f 13/76/76 30/77/77 19/73/73
s 17
f 39/63/63 8/62/62 42/78/78
s 16
f 1/59/59 19/73/73 38/60/60
f 38/60/60 19/73/73 43/79/79
s 18
f 42/71/71 10/70/70 44/80/80
s 16
f 34/81/81 39/82/82 30/77/77
s 21
f 45/83/83 46/84/84 40/86/85
f 40/86/85 46/84/84 41/85/86
s 22
f 44/88/87 10/89/88 47/87/89
f 47/87/89 10/89/88 33/90/90
s 16
f 19/73/73 30/77/77 43/79/79
f 43/79/79 30/77/77 48/91/91
s 22
f 49/92/92 44/88/87 47/87/89
s 16
f 42/93/93 44/94/94 39/82/82
f 50/95/95 44/94/94 49/96/96
f 48/91/91 30/77/77 51/97/97
f 51/97/97 30/77/77 39/82/82
f 51/97/97 39/82/82 52/98/98
f 52/98/98 39/82/82 44/94/94
s 21
f 46/84/84 45/83/83 54/100/99
f 54/100/99 45/83/83 53/99/100
s 16
f 56/102/101 57/103/102 55/101/103
f 55/101/103 57/103/102 58/104/104
f 57/103/102 59/105/105 58/104/104
f 58/104/104 59/105/105 60/106/106
f 59/105/105 61/107/107 60/106/106
f 60/106/106 61/107/107 62/108/108
f 61/107/107 54/109/109 62/108/108
f 62/108/108 54/109/109 53/110/110
f 55/101/103 52/98/98 56/102/101
f 56/102/101 52/98/98 50/95/95
f 52/98/98 44/94/94 50/95/95
s 26
f 26/120/111 21/121/112 28/119/113
f 23/122/114 37/123/115 21/121/112
f 40/135/116 35/136/117 45/134/118
f 53/133/119 45/134/118 62/132/120
f 35/136/117 31/111/121 45/134/118
f 31/111/121 4/112/122 45/134/118
f 28/119/113 21/121/112 27/118/123
f 37/123/115 38/124/124 21/121/112
f 62/132/120 45/134/118 60/131/125
f 4/112/122 7/113/126 45/134/118
f 7/113/126 17/114/127 45/134/118
f 60/131/125 45/134/118 58/130/128
f 17/114/127 24/115/129 45/134/118
f 24/115/129 25/116/130 45/134/118
f 27/118/123 21/121/112 29/117/131
f 58/130/128 45/134/118 55/129/132
f 25/116/130 29/117/131 45/134/118
f 29/117/131 21/121/112 45/134/118
f 21/121/112 38/124/124 45/134/118
f 38/124/124 43/125/133 45/134/118
f 43/125/133 48/126/134 45/134/118
f 48/126/134 51/127/135 45/134/118
f 51/127/135 52/128/136 45/134/118
f 52/128/136 55/129/132 45/134/118
s 30
f 49/142/137 47/143/138 50/141/139
f 33/144/140 16/145/141 47/143/138
f 41/150/142 46/151/143 36/149/144
f 54/152/145 61/137/146 46/151/143
f 61/137/146 59/138/147 46/151/143
f 50/141/139 47/143/138 56/140/148
f 16/145/141 6/146/149 47/143/138
f 36/149/144 46/151/143 32/148/150
f 59/138/147 57/139/151 46/151/143
f 56/140/148 47/143/138 57/139/151
f 57/139/151 47/143/138 46/151/143
f 47/143/138 6/146/149 46/151/143
f 6/146/149 5/147/152 46/151/143
f 5/147/152 32/148/150 46/151/143
