# This file uses centimeters as units for non-parametric coordinates.

g default
v -0.533727 0.498383 0.412443
v -0.530761 -0.503483 0.155194
v -0.530375 -0.503348 0.413927
v 0.503673 -0.499887 0.410960
v -0.533984 0.498116 0.117436
v -0.316966 0.288710 -0.237445
v -0.534096 0.287673 -0.237445
v 0.503157 -0.499888 0.152227
v 0.500326 0.500113 0.410960
v 0.499939 0.499979 0.115953
v 0.499647 0.290875 -0.237445
v 0.502114 -0.499505 -0.237445
v -0.296638 -0.502280 -0.237445
v -0.531617 -0.503101 -0.237445
vt 0.951416 0.714593
vt 0.680320 0.713686
vt 0.680320 0.713686
vt 0.681257 0.433844
vt 0.951416 0.714593
vt 0.923074 0.655680
vt 0.922888 0.714497
vt 0.681257 0.433844
vt 0.951884 0.434750
vt 0.951884 0.434750
vt 0.923537 0.434655
vt 0.711855 0.433946
vt 0.711311 0.650137
vt 0.468044 0.169236
vt 0.550373 0.169568
vt 0.550622 0.048466
vt 0.470094 0.048041
vt 0.446404 0.047915
vt 0.446154 0.169077
vt 0.711191 0.713789
vn -0.999994 -0.003207 0.000964
vn -0.999993 -0.003217 0.001804
vn -0.999993 -0.003344 0.001495
vn 0.003349 -0.999994 0.000514
vn 0.003425 -0.999994 -0.000316
vn 0.003456 -0.999994 0.000080
vn -0.002207 0.962416 -0.271572
vn -0.002473 0.860577 -0.509315
vn -0.004106 0.860134 -0.510052
vn -0.999994 -0.003162 0.001476
vn 0.003475 -0.999994 -0.000555
vn 0.002135 0.000764 0.999997
vn 0.002165 0.000733 0.999997
vn 0.001432 0.001486 0.999998
vn 0.002869 0.000010 0.999996
vn -0.001781 0.999998 -0.000823
vn -0.002088 0.958003 -0.286751
vn 0.999992 0.003347 -0.001993
vn 0.999992 0.003210 -0.002295
vn 0.999994 0.003197 -0.001410
vn 0.999993 0.003149 -0.001939
vn -0.001674 0.999999 -0.000453
vn -0.002282 0.860628 -0.509229
vn 0.999992 0.003122 -0.002674
vn 0.999992 0.003122 -0.002674
vn 0.003476 -0.999994 -0.000991
vn 0.003473 -0.999994 -0.000993
vn 0.000001 0.000000 -1.000000
vn -0.000001 0.000000 -1.000000
vn 0.000000 0.000000 -1.000000
vn -0.000000 0.000000 -1.000000
vn 0.000000 0.000000 -1.000000
vn 0.000000 0.000000 -1.000000
vn -0.999993 -0.003136 0.002175
vn -0.999993 -0.003136 0.002175
vn 0.003494 -0.999994 -0.000980
s 1
g Staircollide7
f 1/1/1 2/2/2 3/3/3
s 2
f 3/3/4 2/2/5 4/4/6
s 3
f 5/5/7 6/6/8 7/7/9
s 1
f 5/5/10 2/2/2 1/1/1
s 2
f 4/4/6 2/2/5 8/8/11
s 4
f 3/3/12 9/9/13 1/1/14
f 4/4/15 9/9/13 3/3/12
s 3
f 1/1/16 10/10/17 5/5/7
s 6
f 4/4/18 8/8/19 9/9/20
f 9/9/20 8/8/19 10/10/21
s 3
f 9/9/22 10/10/17 1/1/16
f 11/11/23 6/6/8 10/10/17
f 10/10/17 6/6/8 5/5/7
s 6
f 12/12/24 11/11/25 8/8/19
f 8/8/19 11/11/25 10/10/21
s 2
f 2/2/5 13/13/26 8/8/11
f 8/8/11 13/13/26 12/12/27
s 7
f 14/18/28 7/19/29 13/17/30
f 7/19/29 6/14/31 13/17/30
f 6/14/31 11/15/32 13/17/30
f 11/15/32 12/16/33 13/17/30
s 1
f 5/5/10 7/7/34 2/2/2
f 2/2/2 7/7/34 14/20/35
s 2
f 13/13/26 2/2/5 14/20/36
