# This file uses centimeters as units for non-parametric coordinates.

g default
v -1.403722 0.000000 0.000000
v 1.403722 0.000000 0.000000
v -1.306305 0.000000 0.200000
v 1.306305 0.000000 0.200000
v -1.220237 0.000000 0.400000
v 1.220237 0.000000 0.400000
v -1.139852 0.000000 0.600000
v 1.139852 0.000000 0.600000
v -1.067910 0.000000 0.800000
v 1.067910 0.000000 0.800000
v -1.014508 0.000000 1.000000
v 1.014508 0.000000 1.000000
v -0.959673 0.000000 1.200000
v 0.959673 0.000000 1.200000
v -0.906340 0.000000 1.400000
v 0.906340 0.000000 1.400000
v -0.856224 0.000000 1.600000
v 0.856224 0.000000 1.600000
v -0.810420 0.000000 1.800000
v 0.810420 0.000000 1.800000
v -0.769699 0.000000 2.000000
v 0.769699 0.000000 2.000000
v -0.732268 0.000000 2.200000
v 0.732268 0.000000 2.200000
v -0.696532 0.000000 2.400000
v 0.696532 0.000000 2.400000
v -0.662729 0.000000 2.600000
v 0.662729 0.000000 2.600000
v -0.631073 0.000000 2.800000
v 0.631073 0.000000 2.800000
v -0.601764 0.000000 3.000000
v 0.601764 0.000000 3.000000
v -0.568531 0.000000 3.200000
v 0.568531 0.000000 3.200000
v -0.538624 0.000000 3.400000
v 0.538624 0.000000 3.400000
v -0.518000 0.000000 3.600000
v 0.518000 0.000000 3.600000
v -0.505990 0.000000 3.800000
v 0.505990 0.000000 3.800000
v -0.500000 0.000000 4.000000
v 0.500000 0.000000 4.000000
vt 0.000000 0.000000
vt 1.000000 0.000000
vt 0.000000 0.050000
vt 1.000000 0.050000
vt 0.000000 0.100000
vt 1.000000 0.100000
vt 0.000000 0.150000
vt 1.000000 0.150000
vt 0.000000 0.200000
vt 1.000000 0.200000
vt 0.000000 0.250000
vt 1.000000 0.250000
vt 0.000000 0.300000
vt 1.000000 0.300000
vt 0.000000 0.350000
vt 1.000000 0.350000
vt 0.000000 0.400000
vt 1.000000 0.400000
vt 0.000000 0.450000
vt 1.000000 0.450000
vt 0.000000 0.500000
vt 1.000000 0.500000
vt 0.000000 0.550000
vt 1.000000 0.550000
vt 0.000000 0.600000
vt 1.000000 0.600000
vt 0.000000 0.650000
vt 1.000000 0.650000
vt 0.000000 0.700000
vt 1.000000 0.700000
vt 0.000000 0.750000
vt 1.000000 0.750000
vt 0.000000 0.800000
vt 1.000000 0.800000
vt 0.000000 0.850000
vt 1.000000 0.850000
vt 0.000000 0.900000
vt 1.000000 0.900000
vt 0.000000 0.950000
vt 1.000000 0.950000
vt 0.000000 1.000000
vt 1.000000 1.000000
vn 0.000000 1.000000 0.000000
vn 0.000000 1.000000 0.000000
vn 0.000000 1.000000 0.000000
vn 0.000000 1.000000 0.000000
vn 0.000000 1.000000 0.000000
vn 0.000000 1.000000 0.000000
vn 0.000000 1.000000 0.000000
vn 0.000000 1.000000 0.000000
vn 0.000000 1.000000 0.000000
vn 0.000000 1.000000 0.000000
vn 0.000000 1.000000 0.000000
vn 0.000000 1.000000 0.000000
vn 0.000000 1.000000 0.000000
vn 0.000000 1.000000 0.000000
vn 0.000000 1.000000 0.000000
vn 0.000000 1.000000 0.000000
vn 0.000000 1.000000 0.000000
vn 0.000000 1.000000 0.000000
vn 0.000000 1.000000 0.000000
vn 0.000000 1.000000 0.000000
vn 0.000000 1.000000 0.000000
vn 0.000000 1.000000 0.000000
vn 0.000000 1.000000 0.000000
vn 0.000000 1.000000 0.000000
vn 0.000000 1.000000 0.000000
vn 0.000000 1.000000 0.000000
vn 0.000000 1.000000 0.000000
vn 0.000000 1.000000 0.000000
vn 0.000000 1.000000 0.000000
vn 0.000000 1.000000 0.000000
vn 0.000000 1.000000 0.000000
vn 0.000000 1.000000 0.000000
vn 0.000000 1.000000 0.000000
vn 0.000000 1.000000 0.000000
vn 0.000000 1.000000 0.000000
vn 0.000000 1.000000 0.000000
vn 0.000000 1.000000 0.000000
vn 0.000000 1.000000 0.000000
vn 0.000000 1.000000 0.000000
vn 0.000000 1.000000 0.000000
vn 0.000000 1.000000 0.000000
vn 0.000000 1.000000 0.000000
s 1
g bridge1
f 1/1/1 3/3/2 2/2/3
f 2/2/3 3/3/2 4/4/4
f 3/3/2 5/5/5 4/4/4
f 4/4/4 5/5/5 6/6/6
f 5/5/5 7/7/7 6/6/6
f 6/6/6 7/7/7 8/8/8
f 7/7/7 9/9/9 8/8/8
f 8/8/8 9/9/9 10/10/10
f 9/9/9 11/11/11 10/10/10
f 10/10/10 11/11/11 12/12/12
f 11/11/11 13/13/13 12/12/12
f 12/12/12 13/13/13 14/14/14
f 13/13/13 15/15/15 14/14/14
f 14/14/14 15/15/15 16/16/16
f 15/15/15 17/17/17 16/16/16
f 16/16/16 17/17/17 18/18/18
f 17/17/17 19/19/19 18/18/18
f 18/18/18 19/19/19 20/20/20
f 19/19/19 21/21/21 20/20/20
f 20/20/20 21/21/21 22/22/22
f 21/21/21 23/23/23 22/22/22
f 22/22/22 23/23/23 24/24/24
f 23/23/23 25/25/25 24/24/24
f 24/24/24 25/25/25 26/26/26
f 25/25/25 27/27/27 26/26/26
f 26/26/26 27/27/27 28/28/28
f 27/27/27 29/29/29 28/28/28
f 28/28/28 29/29/29 30/30/30
f 29/29/29 31/31/31 30/30/30
f 30/30/30 31/31/31 32/32/32
f 31/31/31 33/33/33 32/32/32
f 32/32/32 33/33/33 34/34/34
f 33/33/33 35/35/35 34/34/34
f 34/34/34 35/35/35 36/36/36
f 35/35/35 37/37/37 36/36/36
f 36/36/36 37/37/37 38/38/38
f 37/37/37 39/39/39 38/38/38
f 38/38/38 39/39/39 40/40/40
f 39/39/39 41/41/41 40/40/40
f 40/40/40 41/41/41 42/42/42
g default
v -1.403722 0.000000 0.000000
v 1.403722 0.000000 0.000000
v -1.306305 0.000000 0.200000
v 1.306305 0.000000 0.200000
v -1.220237 0.000000 0.400000
v 1.220237 0.000000 0.400000
v -1.139852 0.000000 0.600000
v 1.139852 0.000000 0.600000
v -1.067910 0.000000 0.800000
v 1.067910 0.000000 0.800000
v -1.014508 0.000000 1.000000
v 1.014508 0.000000 1.000000
v -0.959673 0.000000 1.200000
v 0.959673 0.000000 1.200000
v -0.906340 0.000000 1.400000
v 0.906340 0.000000 1.400000
v -0.856224 0.000000 1.600000
v 0.856224 0.000000 1.600000
v -0.810420 0.000000 1.800000
v 0.810420 0.000000 1.800000
v -0.769699 0.000000 2.000000
v 0.769699 0.000000 2.000000
v -0.732268 0.000000 2.200000
v 0.732268 0.000000 2.200000
v -0.696532 0.000000 2.400000
v 0.696532 0.000000 2.400000
v -0.662729 0.000000 2.600000
v 0.662729 0.000000 2.600000
v -0.631073 0.000000 2.800000
v 0.631073 0.000000 2.800000
v -0.601764 0.000000 3.000000
v 0.601764 0.000000 3.000000
v -0.568531 0.000000 3.200000
v 0.568531 0.000000 3.200000
v -0.538624 0.000000 3.400000
v 0.538624 0.000000 3.400000
v -0.518000 0.000000 3.600000
v 0.518000 0.000000 3.600000
v -0.505990 0.000000 3.800000
v 0.505990 0.000000 3.800000
v -0.500000 0.000000 4.000000
v 0.500000 0.000000 4.000000
v -1.334565 1.908090 0.615514
v 1.334565 1.908090 0.615514
v -1.306305 1.908089 0.643254
v 1.306305 1.908089 0.643254
v -1.220237 1.908089 0.709389
v 1.220237 1.908089 0.709389
v -1.139852 1.908089 0.807528
v 1.139852 1.908089 0.807528
v -1.067910 1.908089 0.932908
v 1.067910 1.908089 0.932908
v -1.014508 1.908089 1.072245
v 1.014508 1.908089 1.072245
v -0.959673 1.908089 1.225172
v 0.959673 1.908089 1.225172
v -0.906340 1.908090 1.400000
v 0.906340 1.908090 1.400000
v -0.856224 1.908090 1.600000
v 0.856224 1.908090 1.600000
v -0.810420 1.908090 1.800000
v 0.810420 1.908090 1.800000
v -0.769699 1.908090 2.000000
v 0.769699 1.908090 2.000000
v -0.732268 1.908089 2.200000
v 0.732268 1.908089 2.200000
v -0.696532 1.908089 2.400000
v 0.696532 1.908089 2.400000
v -0.662729 1.908089 2.600000
v 0.662729 1.908089 2.600000
v -0.631073 1.908089 2.800000
v 0.631073 1.908089 2.800000
v -0.601764 1.908089 3.000000
v 0.601764 1.908089 3.000000
v -0.568531 1.908090 3.200000
v 0.568531 1.908090 3.200000
v -0.538624 1.908090 3.400000
v 0.538624 1.908090 3.400000
v -0.518000 1.908089 3.600000
v 0.518000 1.908089 3.600000
v -0.505990 1.908089 3.800000
v 0.505990 1.908089 3.800000
v -0.500000 1.908090 4.000000
v 0.500000 1.908090 4.000000
vt 0.000000 0.000000
vt 1.000000 0.000000
vt 1.000000 1.000000
vt 0.000000 1.000000
vt 0.000000 0.000000
vt 1.000000 0.000000
vt 1.000000 1.000000
vt 0.000000 1.000000
vt 0.000000 0.000000
vt 1.000000 0.000000
vt 1.000000 1.000000
vt 0.000000 1.000000
vt 0.000000 0.000000
vt 1.000000 0.000000
vt 1.000000 1.000000
vt 0.000000 1.000000
vt 0.000000 0.000000
vt 1.000000 0.000000
vt 1.000000 1.000000
vt 0.000000 1.000000
vt 0.000000 0.000000
vt 1.000000 0.000000
vt 1.000000 1.000000
vt 0.000000 1.000000
vt 0.000000 0.000000
vt 1.000000 0.000000
vt 1.000000 1.000000
vt 0.000000 1.000000
vt 0.000000 0.000000
vt 1.000000 0.000000
vt 1.000000 1.000000
vt 0.000000 1.000000
vt 0.000000 0.000000
vt 1.000000 0.000000
vt 1.000000 1.000000
vt 0.000000 1.000000
vt 0.000000 0.000000
vt 1.000000 0.000000
vt 1.000000 1.000000
vt 0.000000 1.000000
vt 0.000000 0.000000
vt 1.000000 0.000000
vt 1.000000 1.000000
vt 0.000000 1.000000
vt 0.000000 0.000000
vt 1.000000 0.000000
vt 1.000000 1.000000
vt 0.000000 1.000000
vt 0.000000 0.000000
vt 1.000000 0.000000
vt 1.000000 1.000000
vt 0.000000 1.000000
vt 0.000000 0.000000
vt 1.000000 0.000000
vt 1.000000 1.000000
vt 0.000000 1.000000
vt 0.000000 0.000000
vt 1.000000 0.000000
vt 1.000000 1.000000
vt 0.000000 1.000000
vt 0.000000 0.000000
vt 1.000000 0.000000
vt 1.000000 1.000000
vt 0.000000 1.000000
vt 0.000000 0.000000
vt 1.000000 0.000000
vt 1.000000 1.000000
vt 0.000000 1.000000
vt 0.000000 0.000000
vt 1.000000 0.000000
vt 1.000000 1.000000
vt 0.000000 1.000000
vt 0.000000 0.000000
vt 1.000000 0.000000
vt 1.000000 1.000000
vt 0.000000 1.000000
vt 0.000000 0.000000
vt 1.000000 0.000000
vt 1.000000 1.000000
vt 0.000000 1.000000
vt 0.000000 0.000000
vt 1.000000 0.000000
vt 1.000000 1.000000
vt 0.000000 1.000000
vt 0.000000 0.000000
vt 1.000000 0.000000
vt 1.000000 1.000000
vt 0.000000 1.000000
vt 0.000000 0.000000
vt 1.000000 0.000000
vt 1.000000 1.000000
vt 0.000000 1.000000
vt 0.000000 0.000000
vt 1.000000 0.000000
vt 1.000000 1.000000
vt 0.000000 1.000000
vt 0.000000 0.000000
vt 1.000000 0.000000
vt 1.000000 1.000000
vt 0.000000 1.000000
vt 0.000000 0.000000
vt 1.000000 0.000000
vt 1.000000 1.000000
vt 0.000000 1.000000
vt 0.000000 0.000000
vt 1.000000 0.000000
vt 1.000000 1.000000
vt 0.000000 1.000000
vt 0.000000 0.000000
vt 1.000000 0.000000
vt 1.000000 1.000000
vt 0.000000 1.000000
vt 0.000000 0.000000
vt 1.000000 0.000000
vt 1.000000 1.000000
vt 0.000000 1.000000
vt 0.000000 0.000000
vt 1.000000 0.000000
vt 1.000000 1.000000
vt 0.000000 1.000000
vt 0.000000 0.000000
vt 1.000000 0.000000
vt 1.000000 1.000000
vt 0.000000 1.000000
vt 0.000000 0.000000
vt 1.000000 0.000000
vt 1.000000 1.000000
vt 0.000000 1.000000
vt 0.000000 0.000000
vt 1.000000 0.000000
vt 1.000000 1.000000
vt 0.000000 1.000000
vt 0.000000 0.000000
vt 1.000000 0.000000
vt 1.000000 1.000000
vt 0.000000 1.000000
vt 0.000000 0.000000
vt 1.000000 0.000000
vt 1.000000 1.000000
vt 0.000000 1.000000
vt 0.000000 0.000000
vt 1.000000 0.000000
vt 1.000000 1.000000
vt 0.000000 1.000000
vt 0.000000 0.000000
vt 1.000000 0.000000
vt 1.000000 1.000000
vt 0.000000 1.000000
vt 0.000000 0.000000
vt 1.000000 0.000000
vt 1.000000 1.000000
vt 0.000000 1.000000
vt 0.000000 0.000000
vt 1.000000 0.000000
vt 1.000000 1.000000
vt 0.000000 1.000000
vt 0.000000 0.000000
vt 1.000000 0.000000
vt 1.000000 1.000000
vt 0.000000 1.000000
vn 0.902389 0.086545 -0.422142
vn 0.893988 0.101492 -0.436445
vn 0.649304 0.179377 -0.739072
vn 0.686254 0.200657 -0.699137
vn -0.893761 0.108038 -0.435337
vn -0.902881 0.100998 -0.417857
vn -0.752813 0.150684 -0.640755
vn -0.659877 0.133518 -0.739415
vn 0.920007 0.054299 -0.388122
vn 0.720073 0.131913 -0.681245
vn -0.918350 0.077804 -0.388046
vn -0.719734 0.093741 -0.687892
vn 0.932531 0.033226 -0.359558
vn 0.834575 0.072900 -0.546049
vn -0.931664 0.049486 -0.359936
vn -0.833850 0.049743 -0.549745
vn 0.952919 0.017383 -0.302726
vn 0.907590 0.037541 -0.418175
vn -0.952554 0.027835 -0.303095
vn -0.907397 0.023675 -0.419607
vn 0.964862 0.006914 -0.262668
vn 0.939265 0.017863 -0.342727
vn -0.964709 0.013973 -0.262946
vn -0.939043 0.008918 -0.343683
vn 0.965065 0.001870 -0.262003
vn 0.950560 0.007681 -0.310445
vn -0.964876 0.006598 -0.262624
vn -0.950168 0.002208 -0.311731
vn 0.968146 0.000000 -0.250385
vn 0.964273 0.001678 -0.264907
vn -0.967912 0.001605 -0.251286
vn -0.963961 0.000000 -0.266044
vn 0.972431 0.000000 -0.233189
vn 0.972431 0.000000 -0.233189
vn -0.972431 0.000000 -0.233189
vn -0.972431 0.000000 -0.233189
vn 0.977395 0.000000 -0.211423
vn 0.977395 0.000000 -0.211424
vn -0.977395 0.000000 -0.211424
vn -0.977395 0.000000 -0.211423
vn 0.981443 0.000000 -0.191754
vn 0.981443 0.000000 -0.191755
vn -0.981443 0.000000 -0.191755
vn -0.981443 0.000000 -0.191754
vn 0.983679 0.000000 -0.179931
vn 0.983679 0.000000 -0.179931
vn -0.983679 0.000000 -0.179931
vn -0.983679 0.000000 -0.179931
vn 0.985223 0.000000 -0.171279
vn 0.985223 0.000000 -0.171279
vn -0.985223 0.000000 -0.171279
vn -0.985223 0.000000 -0.171279
vn 0.986873 0.000000 -0.161500
vn 0.986873 0.000000 -0.161500
vn -0.986873 0.000000 -0.161500
vn -0.986873 0.000000 -0.161500
vn 0.988584 0.000000 -0.150672
vn 0.988584 0.000000 -0.150672
vn -0.988584 0.000000 -0.150672
vn -0.988584 0.000000 -0.150672
vn 0.987996 0.000000 -0.154478
vn 0.987996 0.000000 -0.154477
vn -0.987996 0.000000 -0.154477
vn -0.987996 0.000000 -0.154478
vn 0.987770 0.000000 -0.155919
vn 0.987770 0.000000 -0.155919
vn -0.987770 0.000000 -0.155919
vn -0.987770 0.000000 -0.155919
vn 0.992115 0.000000 -0.125332
vn 0.992115 0.000000 -0.125332
vn -0.992115 0.000000 -0.125332
vn -0.992115 0.000000 -0.125332
vn 0.996688 0.000000 -0.081316
vn 0.996688 0.000000 -0.081316
vn -0.996688 0.000000 -0.081316
vn -0.996688 0.000000 -0.081316
vn 0.998989 0.000000 -0.044954
vn 0.998989 0.000000 -0.044954
vn -0.998989 0.000000 -0.044954
vn -0.998989 0.000000 -0.044954
vn 0.999552 0.000000 -0.029936
vn 0.999552 0.000000 -0.029936
vn -0.999552 0.000000 -0.029936
vn -0.999552 0.000000 -0.029936
s 1
g bridge1 bridge1wall
f 45/43/43 43/44/44 87/46/45
f 87/46/45 43/44/44 85/45/46
s 2
f 44/47/47 46/48/48 86/50/49
f 86/50/49 46/48/48 88/49/50
s 1
f 47/51/51 45/52/43 89/54/52
f 89/54/52 45/52/43 87/53/45
s 2
f 46/55/48 48/56/53 88/58/50
f 88/58/50 48/56/53 90/57/54
s 1
f 49/59/55 47/60/51 91/62/56
f 91/62/56 47/60/51 89/61/52
s 2
f 48/63/53 50/64/57 90/66/54
f 90/66/54 50/64/57 92/65/58
s 1
f 51/67/59 49/68/55 93/70/60
f 93/70/60 49/68/55 91/69/56
s 2
f 50/71/57 52/72/61 92/74/58
f 92/74/58 52/72/61 94/73/62
s 1
f 53/75/63 51/76/59 95/78/64
f 95/78/64 51/76/59 93/77/60
s 2
f 52/79/61 54/80/65 94/82/62
f 94/82/62 54/80/65 96/81/66
s 1
f 55/83/67 53/84/63 97/86/68
f 97/86/68 53/84/63 95/85/64
s 2
f 54/87/65 56/88/69 96/90/66
f 96/90/66 56/88/69 98/89/70
s 1
f 57/91/71 55/92/67 99/94/72
f 99/94/72 55/92/67 97/93/68
s 2
f 56/95/69 58/96/73 98/98/70
f 98/98/70 58/96/73 100/97/74
s 1
f 59/99/75 57/100/71 101/102/76
f 101/102/76 57/100/71 99/101/72
s 2
f 58/103/73 60/104/77 100/106/74
f 100/106/74 60/104/77 102/105/78
s 1
f 61/107/79 59/108/75 103/110/80
f 103/110/80 59/108/75 101/109/76
s 2
f 60/111/77 62/112/81 102/114/78
f 102/114/78 62/112/81 104/113/82
s 1
f 63/115/83 61/116/79 105/118/84
f 105/118/84 61/116/79 103/117/80
s 2
f 62/119/81 64/120/85 104/122/82
f 104/122/82 64/120/85 106/121/86
s 1
f 65/123/87 63/124/83 107/126/88
f 107/126/88 63/124/83 105/125/84
s 2
f 64/127/85 66/128/89 106/130/86
f 106/130/86 66/128/89 108/129/90
s 1
f 67/131/91 65/132/87 109/134/92
f 109/134/92 65/132/87 107/133/88
s 2
f 66/135/89 68/136/93 108/138/90
f 108/138/90 68/136/93 110/137/94
s 1
f 69/139/95 67/140/91 111/142/96
f 111/142/96 67/140/91 109/141/92
s 2
f 68/143/93 70/144/97 110/146/94
f 110/146/94 70/144/97 112/145/98
s 1
f 71/147/99 69/148/95 113/150/100
f 113/150/100 69/148/95 111/149/96
s 2
f 70/151/97 72/152/101 112/154/98
f 112/154/98 72/152/101 114/153/102
s 1
f 73/155/103 71/156/99 115/158/104
f 115/158/104 71/156/99 113/157/100
s 2
f 72/159/101 74/160/105 114/162/102
f 114/162/102 74/160/105 116/161/106
s 1
f 75/163/107 73/164/103 117/166/108
f 117/166/108 73/164/103 115/165/104
s 2
f 74/167/105 76/168/109 116/170/106
f 116/170/106 76/168/109 118/169/110
s 1
f 77/171/111 75/172/107 119/174/112
f 119/174/112 75/172/107 117/173/108
s 2
f 76/175/109 78/176/113 118/178/110
f 118/178/110 78/176/113 120/177/114
s 1
f 79/179/115 77/180/111 121/182/116
f 121/182/116 77/180/111 119/181/112
s 2
f 78/183/113 80/184/117 120/186/114
f 120/186/114 80/184/117 122/185/118
s 1
f 81/187/119 79/188/115 123/190/120
f 123/190/120 79/188/115 121/189/116
s 2
f 80/191/117 82/192/121 122/194/118
f 122/194/118 82/192/121 124/193/122
s 1
f 83/195/123 81/196/119 125/198/124
f 125/198/124 81/196/119 123/197/120
s 2
f 82/199/121 84/200/125 124/202/122
f 124/202/122 84/200/125 126/201/126
